<svg width="153" height="152" fill="none" xmlns="http://www.w3.org/2000/svg"><mask id="a" style="mask-type:luminance" maskUnits="userSpaceOnUse" x="0" y="0" width="153" height="152"><path d="M152.755.5h-152v151h152V.5Z" fill="#fff"/></mask><g mask="url(#a)"><mask id="b" style="mask-type:luminance" maskUnits="userSpaceOnUse" x="1" y="0" width="153" height="153"><path d="M153.082.772H1.8v151.659h151.282V.772Z" fill="#fff"/></mask><g mask="url(#b)" fill="#F9EEE4"><path d="M56.95 76.657a2.361 2.361 0 0 0-3.484 0l-5.91 6.46a2.374 2.374 0 0 0 .145 3.348 2.36 2.36 0 0 0 3.34-.145l1.803-1.971v8.128a2.367 2.367 0 0 0 2.364 2.37 2.367 2.367 0 0 0 2.364-2.37v-8.128l1.803 1.971c.466.51 1.103.768 1.743.768a2.35 2.35 0 0 0 1.597-.623 2.374 2.374 0 0 0 .144-3.348l-5.91-6.46ZM25.877 40.806c-.101-.705-.173-1.43-.214-2.155a2.367 2.367 0 0 0-2.492-2.233 2.368 2.368 0 0 0-2.228 2.499c.049.86.134 1.722.254 2.56a2.366 2.366 0 0 0 2.675 2.01 2.369 2.369 0 0 0 2.005-2.681ZM47.15 61.729h.029c.84-.01 1.681-.045 2.499-.103a2.367 2.367 0 0 0 2.19-2.533 2.363 2.363 0 0 0-2.527-2.195c-.724.052-1.47.083-2.218.092a2.367 2.367 0 0 0-2.336 2.398 2.366 2.366 0 0 0 2.363 2.34ZM34.67 59.682a24.45 24.45 0 0 0 2.468.863 2.36 2.36 0 0 0 2.93-1.615 2.37 2.37 0 0 0-1.611-2.937c-.685-.2-1.355-.433-1.99-.695a2.362 2.362 0 0 0-3.085 1.292 2.371 2.371 0 0 0 1.288 3.092ZM25.414 48.003a2.373 2.373 0 0 0-.752 3.266c.472.755.99 1.483 1.542 2.164a2.357 2.357 0 0 0 3.325.345 2.373 2.373 0 0 0 .345-3.333c-.43-.53-.834-1.098-1.202-1.688a2.36 2.36 0 0 0-3.258-.754ZM58.717 59.673c.278 0 .56-.049.834-.153.8-.302 1.591-.64 2.354-1.003a2.372 2.372 0 0 0 1.12-3.158 2.361 2.361 0 0 0-3.15-1.122c-.645.307-1.315.593-1.992.849a2.371 2.371 0 0 0 .834 4.587Z"/><path d="M74.227 41.345a2.366 2.366 0 0 0-2.623 2.077c-.007.062-.78 6.294-5.137 12.313-5.825 8.045-15.017 11.733-27.328 10.956-9.15-.576-14.212-5.037-16.847-8.677-3.715-5.133-5.06-12.058-3.51-18.075.863-3.353 2.016-6.45 3.243-9.698a2.362 2.362 0 0 0 2.204 1.511c1.12 0 2.114-.8 2.322-1.944.145-.793.279-1.607.398-2.417a2.369 2.369 0 0 0-1.993-2.69 2.355 2.355 0 0 0-.904.042c1.234-3.535 2.349-7.301 3.036-11.617.381-2.393-.443-8.78-.612-10.037a2.365 2.365 0 0 0-2.658-2.031 2.368 2.368 0 0 0-2.027 2.665c.382 2.836.83 7.397.629 8.655-.948 5.95-2.83 10.93-4.65 15.746-1.278 3.38-2.598 6.875-3.566 10.63-1.892 7.35-.26 15.797 4.262 22.043 2.852 3.94 7.984 8.657 16.698 10.19 1.41 9.994 1.752 24.215-1.376 35.536-1.846 6.683-4.403 11.296-7.11 16.18-3.803 6.86-7.735 13.954-9.797 26.987a2.368 2.368 0 0 0 2.337 2.741 2.366 2.366 0 0 0 2.332-1.999c1.931-12.205 5.491-18.628 9.26-25.427 2.723-4.912 5.537-9.992 7.534-17.217 3.2-11.582 2.998-25.903 1.657-36.311.751.031 1.493.053 2.215.053 15.313 0 23.689-6.949 28.078-13.011 5.075-7.01 5.97-14.24 6.007-14.544a2.368 2.368 0 0 0-2.072-2.63h-.002ZM101.513 76.657a2.362 2.362 0 0 0-3.484 0l-5.91 6.46a2.374 2.374 0 0 0 .145 3.348 2.36 2.36 0 0 0 3.34-.145l1.804-1.971v8.128a2.366 2.366 0 0 0 2.363 2.37 2.366 2.366 0 0 0 2.364-2.37v-8.128l1.804 1.971c.466.51 1.103.768 1.743.768a2.35 2.35 0 0 0 1.596-.623 2.375 2.375 0 0 0 .145-3.348l-5.91-6.46Z"/><path d="M128.306 122.703c-2.708-4.884-5.265-9.497-7.111-16.18-3.128-11.32-2.787-25.542-1.376-35.537 8.714-1.531 13.846-6.25 16.698-10.189 4.521-6.246 6.154-14.693 4.262-22.043-.967-3.755-2.288-7.25-3.566-10.63-1.82-4.816-3.702-9.796-4.65-15.745-.2-1.257.247-5.819.629-8.656a2.37 2.37 0 0 0-2.027-2.665 2.366 2.366 0 0 0-2.659 2.031c-.168 1.256-.992 7.644-.611 10.037.687 4.316 1.802 8.082 3.036 11.617a2.35 2.35 0 0 0-.903-.043 2.37 2.37 0 0 0-1.995 2.69c.12.811.254 1.624.399 2.418a2.365 2.365 0 0 0 2.75 1.905 2.364 2.364 0 0 0 1.776-1.473c1.227 3.25 2.38 6.346 3.244 9.699 1.549 6.017.204 12.943-3.511 18.075-2.635 3.64-7.697 8.101-16.848 8.677-12.225.771-21.382-2.864-27.215-10.802-4.418-6.014-5.242-12.41-5.25-12.473a2.365 2.365 0 0 0-2.623-2.072 2.368 2.368 0 0 0-2.072 2.63c.036.305.932 7.535 6.007 14.545 7.585 10.476 18.951 13.007 28.161 13.007.727 0 1.435-.02 2.132-.05-1.341 10.409-1.544 24.73 1.657 36.312 1.996 7.226 4.811 12.304 7.533 17.216 3.77 6.8 7.329 13.223 9.261 25.428a2.365 2.365 0 0 0 2.705 1.97 2.37 2.37 0 0 0 1.964-2.712c-2.063-13.033-5.995-20.127-9.797-26.988v.001Z"/><path d="M117.182 60.64c.218 0 .44-.031.661-.095a24.53 24.53 0 0 0 2.467-.863 2.371 2.371 0 0 0 1.289-3.092 2.362 2.362 0 0 0-3.084-1.292c-.637.262-1.306.496-1.99.695a2.37 2.37 0 0 0-1.611 2.937 2.365 2.365 0 0 0 2.268 1.71ZM125.451 53.778a2.359 2.359 0 0 0 3.326-.345c.551-.68 1.07-1.409 1.541-2.164a2.373 2.373 0 0 0-.751-3.266 2.36 2.36 0 0 0-3.257.754c-.369.59-.773 1.158-1.202 1.688a2.372 2.372 0 0 0 .343 3.333ZM131.108 43.487a2.365 2.365 0 0 0 2.675-2.01c.121-.839.206-1.7.254-2.56a2.364 2.364 0 1 0-4.72-.266 25.33 25.33 0 0 1-.214 2.154 2.37 2.37 0 0 0 2.005 2.682ZM93.078 58.516c.762.364 1.554.702 2.354 1.004a2.357 2.357 0 0 0 3.045-1.382 2.371 2.371 0 0 0-1.378-3.053 26.222 26.222 0 0 1-1.991-.849 2.36 2.36 0 0 0-3.15 1.123 2.372 2.372 0 0 0 1.12 3.157ZM105.302 61.625c.818.059 1.658.093 2.499.103h.03a2.366 2.366 0 0 0 2.362-2.34 2.366 2.366 0 0 0-2.334-2.398 37.482 37.482 0 0 1-2.22-.092 2.365 2.365 0 0 0-2.526 2.195 2.368 2.368 0 0 0 2.189 2.532ZM77.44 113.594a2.367 2.367 0 0 0-2.363 2.37v2.369a2.367 2.367 0 0 0 2.364 2.37 2.367 2.367 0 0 0 2.364-2.37v-2.369a2.367 2.367 0 0 0-2.364-2.37Z"/></g></g></svg>