<svg width="153" height="152" fill="none" xmlns="http://www.w3.org/2000/svg"><mask id="a" style="mask-type:luminance" maskUnits="userSpaceOnUse" x="0" y="0" width="153" height="152"><path d="M152.813.5h-152v151h152V.5Z" fill="#fff"/></mask><g mask="url(#a)"><path d="M74.112 126.004c0 1.975 1.208 3.576 2.7 3.576 1.49 0 2.698-1.601 2.698-3.576 0-1.974-1.208-3.574-2.699-3.574-1.49 0-2.699 1.6-2.699 3.574Z" fill="#fff"/><path d="M83.917 72.459c.427.414.862.815 1.306 1.204" stroke="#fff" stroke-width="5" stroke-linecap="round" stroke-linejoin="round"/><path d="M92.127 78.336c4.67 2.372 9.862 3.622 15.248 3.622.272 0 .544-.003.817-.01 17.641-.412 32.034-14.38 32.768-31.799.173-4.106-.47-8.28-1.831-12.227" stroke="#fff" stroke-width="5" stroke-linecap="round" stroke-linejoin="round" stroke-dasharray="16.12 37.62"/><path d="M137.539 34.077a34.47 34.47 0 0 0-.815-1.573M69.708 72.459c-.426.414-.862.815-1.306 1.204" stroke="#fff" stroke-width="5" stroke-linecap="round" stroke-linejoin="round"/><path d="M61.497 78.336c-4.668 2.372-9.861 3.622-15.248 3.622-.272 0-.543-.003-.816-.009-17.641-.413-32.035-14.38-32.769-31.8-.173-4.106.47-8.28 1.831-12.227" stroke="#fff" stroke-width="5" stroke-linecap="round" stroke-linejoin="round" stroke-dasharray="16.12 37.62"/><path d="M16.084 34.077c.258-.53.53-1.056.815-1.573" stroke="#fff" stroke-width="5" stroke-linecap="round" stroke-linejoin="round"/><path d="M123.948 18.048c-1.711 5.285-.83 10.98 2.626 15.343 3.493 4.409 5.655 10.283 5.398 16.385-.538 12.776-11.123 22.937-23.992 23.238-13.851.324-25.19-10.741-25.19-24.43" stroke="#fff" stroke-width="5" stroke-miterlimit="10" stroke-linecap="round" stroke-linejoin="round"/><path d="M107.101 53.656c0 2.468 2.013 4.469 4.498 4.469 2.484 0 4.498-2 4.498-4.469 0-2.468-2.014-4.468-4.498-4.468-2.485 0-4.498 2-4.498 4.468ZM29.676 18.048c1.71 5.285.83 10.98-2.626 15.343-3.493 4.409-5.656 10.283-5.399 16.385.539 12.776 11.124 22.937 23.992 23.238 13.852.324 25.19-10.741 25.19-24.43" stroke="#fff" stroke-width="5" stroke-miterlimit="10" stroke-linecap="round" stroke-linejoin="round"/><path d="M46.524 53.656c0 2.468-2.014 4.469-4.498 4.469-2.485 0-4.499-2.001-4.499-4.469 0-2.468 2.014-4.468 4.499-4.468 2.484 0 4.498 2 4.498 4.468ZM35.97 104.118c-.776 19.894-8.938 24.739-8.938 45.17M32.428 68.823c1.111 4.295 2.9 12.755 3.439 24.922M27.05 33.39S25.13 15.92 12.035 2.713M117.655 104.118c.776 19.894 8.938 24.739 8.938 45.17M121.196 68.823c-1.111 4.295-2.899 12.755-3.439 24.921M126.574 33.39s1.92-17.47 15.015-30.678" stroke="#fff" stroke-width="5" stroke-miterlimit="10" stroke-linecap="round" stroke-linejoin="round"/></g></svg>