<svg width="152" height="151" fill="none" xmlns="http://www.w3.org/2000/svg"><mask id="a" style="mask-type:luminance" maskUnits="userSpaceOnUse" x="0" y="0" width="152" height="151"><path d="M152 0H0v151h152V0Z" fill="#fff"/></mask><g clip-path="url(#b)" stroke="#FFF" stroke-width="5" stroke-linecap="round" stroke-linejoin="round" mask="url(#a)"><path d="M122.416 80.116c-1.412 16.004-1.84 29.562-.025 34.743 5.633 16.08 13.466 30.644 13.175 39.184M132.719 1.979s-1.903 11.534-4.162 27.301"/><path d="M122.817 5.721s.375 10.514 3.163 17.27c3.964 9.627 11.529 27.038 9.886 40.156-2.446 19.537-36.054 30.455-51.908 5.492"/><path d="M118.781 21.339s6.515 14.688 10.245 32.753c0 0 2.07 20.825-21.137 21.258-17.717.329-21.756-18.393-21.756-18.393" stroke-dasharray="15 45 15 45"/><path d="M29.207 80.11c1.547 16.093 2.08 29.754.28 34.97-5.557 16.108-13.294 30.738-12.963 39.277M18.341 2.276s1.91 11.055 4.223 26.311M101.456 42.55 87.458 28.76M96.45 29.44l-8.99-.681.69 8.858"/><path d="M29.012 5.852s-.375 10.514-3.163 17.27c-3.968 9.621-11.53 27.033-9.886 40.15 2.447 19.538 36.054 30.455 51.906 5.492"/><path d="M33.05 21.469s-6.515 14.69-10.244 32.754c0 0-2.07 20.825 21.137 21.258 17.717.328 21.756-18.393 21.756-18.393" stroke-dasharray="15 45 15 45"/><path d="M50.377 42.681 64.374 28.89M55.384 29.57l8.99-.681-.69 8.86M78.683 133.786c-1.856.813-3.712.813-5.568 0"/></g><defs><clipPath id="b"><path fill="#fff" transform="translate(13.588 -.172)" d="M0 0h124.436v157.008H0z"/></clipPath></defs></svg>