<svg viewBox="0 0 500 500" xmlns="http://www.w3.org/2000/svg" xml:space="preserve" style="fill-rule:evenodd;clip-rule:evenodd;stroke-linejoin:round;stroke-miterlimit:2"><path style="fill:none" d="M-7.8-11.089h487.879v504.632H-7.8z" transform="matrix(1.02485 0 0 .99082 7.993 10.987)"/><path d="M218.572 7.6C224.1 3.816 229.095.705 229.767.705c1.889 0 21.589 15.678 27.389 21.756 11.872 12.572 22.4 31.355 24.428 44.061.4 2.428.938 4.455 1.344 4.455.267 0 4.722-2.161 9.983-4.861 12.956-6.489 27.256-10.005 45.334-10.95l14.978-.811 1.483 5.272c4.317 15.273 5.805 27.162 5.261 40.273l-.539 13.65 15.517.266c12.278.139 17.944.811 26.444 3.517l10.795 3.244.405 9.323c.806 18.244-5.128 44.733-12.683 56.222-1.761 2.833-3.239 5.539-3.239 6.078 0 .678 3.511 2.433 7.828 4.194 14.433 5.811 25.5 13.645 38.044 26.756 16.056 16.889 17.134 18.516 14.439 22.433-9.178 13.917-31.844 34.461-46.011 41.756-4.556 2.333-8.506 4.444-10.311 5.405l-.722.384-.145.072-.155.083c-.273.272.544 2.3 1.622 4.467 5.128 9.861 9.172 25.539 9.844 38.244l.817 13.106-7.961 2.294c-12.956 3.789-27.122 6.084-37.239 6.084h-9.45l.811 3.65c.539 2.166 1.217 12.027 1.617 22.027.678 16.217.405 19.595-2.428 30.412l-3.233 12.161-15.523-.272c-18.211-.406-36.561-4.462-49.511-11.084-7.689-3.916-8.5-4.05-9.172-1.889-4.05 11.889-13.761 28.245-22.672 38.111C251.489 456.672 232.2 471 229.361 471c-6.2 0-27.928-18.65-37.905-32.432-4.589-6.218-13.361-23.924-13.361-26.629 0-2.428-.406-2.295-9.173 2.161-4.189 2.167-11.2 4.872-15.383 6.083-9.578 2.706-33.056 6.217-42.5 6.217h-7.017l-2.155-7.428c-5.267-18.244-6.072-35.005-2.7-51.361.472-2.256.922-4.356 1.278-6.017v-.005c.45-2.106.744-3.495.744-3.567 0-.105-3.378-.372-8.022-.733-1.372-.111-2.85-.228-4.389-.35-6.883-.406-17.945-2.3-24.695-3.917l-12.144-3.244.272-10.406c.272-13.922 2.567-23.922 7.828-35.405l4.45-9.734-5.667-1.622c-17.266-5.133-35.75-19.328-51.133-38.917C3.506 248.15 0 243.422 0 243.15c0-1.756 15.517-21.084 20.778-25.945 8.5-7.839 20.778-15.683 31.839-20.139l9.172-3.783-5.528-7.972c-9.039-13.517-13.761-28.922-15.244-51.356l-.945-12.705 8.9-2.834c12.417-3.789 30.767-6.083 41.156-5.005l8.767.95-.945-10.545c-.944-11.35.539-25.405 4.183-40.133l2.434-9.328 14.839.811c18.616 1.084 29.005 3.65 43.577 10.406 6.345 2.972 11.873 5.405 12.417 5.405.533 0 1.483-2.838 2.022-6.35 2.695-18.377 20.639-43.111 41.15-57.027Zm24.556 22.566c-6.344-6.489-12.278-11.894-13.228-11.894-3.094 0-16.322 11.894-22.794 20.544-7.961 10.539-10.389 15.539-14.167 27.706-3.378 11.078-2.972 15.539.672 8.511 3.506-6.894 17-22.972 23.745-28.517 8.094-6.622 11.605-8.244 14.844-7.294 5.256 1.755 26.039 23.917 30.622 32.705 2.434 4.728 4.728 8.512 4.995 8.512.944 0-.672-7.973-3.506-17.567-3.777-12.3-8.094-19.056-21.183-32.706Zm-1.483 35c-6.211-6.483-11.878-11.755-12.417-11.755-.672 0-5.667 4.189-10.922 9.322-16.328 15.544-28.067 41.894-28.067 62.978 0 11.083 2.294 23.111 5.8 29.733l2.833 5.406 1.078-8.111c1.911-14.734 7.328-27.45 16.422-38.806l12.484-14.261 15.172 17.344c1.594 2.173 3.072 4.311 4.094 5.995 5.123 8.105 10.923 25.539 11.061 33.511l.133 5.678 2.701-5.811c6.878-15.273 7.694-32.434 2.294-52.978-4.044-14.861-9.983-24.867-22.666-38.245Zm101.994 8.111c-.805-3.922-1.617-5-4.044-4.866-4.995 0-17.539 4.594-23.884 8.65-14.977 9.461-29.005 26.894-33.727 41.894-2.428 7.434-6.473 29.056-5.534 29.056.956-.061 2.167-.883 3.378-2.145 6.894-3.4 34.55-15.938 49.106-18.361.5-.083.972-.194 1.422-.327.755-.084 1.5-.167 2.222-.25l8.772-.945 1.617-5.544c1.889-6.217 2.294-39.323.672-47.162ZM96.872 127.605c-9.711-1.894-25.905-1.083-36.428 1.623l-5.127 1.35.811 6.35c2.155 17.972 10.116 39.194 17.4 46.222l4.728 4.589 5.8-2.834c3.105-1.489 9.311-3.516 13.489-4.594l7.827-1.622-.061-.056a139.46 139.46 0 0 0 9.117-1.65s-.495-3.955-1.483-7.755c.011-.034.005-.078-.017-.134l-.072-.189c-.373-1.394-.811-2.744-1.317-3.861-2.361-7.439-5.3-19.122-6.3-25.816-.811-5.139-1.756-9.6-2.022-9.867-.272-.406-3.239-1.083-6.345-1.756Zm91.27 99.554c3.645-10.042 10.899-18.354 20.196-23.365-1.858-6.722-6.626-17.996-10.143-23.216-11.6-17.434-34.539-33.245-55.856-38.517-4.45-1.078-11.333-2.295-15.106-2.833-6.344-.812-7.155-.678-7.155 1.483 0 5.678 3.239 20.405 6.205 27.978 7.156 18.105 26.85 41.216 41.962 49.322 4.944 2.617 13.127 6.067 18.794 8.078.385.386.753.743 1.103 1.07Zm30.314-27.269a43.415 43.415 0 0 1 10.4-1.257c3.879 0 7.639.51 11.216 1.467l4-9.389c9.578-22.833 6.612-47.161-8.1-66.756-2.966-3.783-5.927-7.028-6.611-7.028-2.022 0-12.277 13.512-14.972 19.728-8.906 19.867-8.5 38.923 1.078 57.839 1.394 2.742 2.274 4.455 2.989 5.396Zm30.931 3.913c9.036 4.877 16.141 12.873 19.873 22.545a414.86 414.86 0 0 1 7.735-2.526c10.927-3.644 23.472-11.755 32.65-21.083 14.027-14.323 25.766-37.973 28.333-57.161l.944-7.028-3.911.133c-28.066 1.217-59.639 18.111-74.072 39.733-4.335 6.639-9.512 18.101-11.552 25.387Zm22.414 32.603c.23 1.81.349 3.655.349 5.527 0 4.699-.748 9.223-2.133 13.46l.489.14c2.383.683 5.361 1.533 7.966 2.75 14.034 6.356 32.656 2.972 47.089-8.644l5.128-4.189-5.528-4.056c-3.105-2.3-9.177-5.411-13.361-7.028-11.194-4.188-21.989-4.6-31.839-1.083-3.651 1.331-6.948 2.573-8.16 3.123Zm-28.986 46.522c-.24.879-.105 2.631.13 5.577.055.712.122 1.495.183 2.35 1.617 22.567 23.206 44.867 50.867 52.573 4.583 1.35 8.494 2.022 8.9 1.616.405-.405 1.755-5.133 2.839-10.677 4.177-19.456.533-37.973-10.256-52.028-6.322-8.078-10.9-11.328-23.083-16.167a162.64 162.64 0 0 0-4.974-4.542c-5.088 9.94-13.905 17.655-24.606 21.298Zm-17.117 2.186c-.355 8.238-2.105 13.728-3.031 15.575 0 0-9.278 24.739-15.461 30.928-.045.038-.084.083-.128.127l-.083.095c-.523.278-2.389 1.911-4.484 3.883-3.639 3.378-4.178 4.861-4.178 10.545.134 16.077 8.1 33.783 21.862 48.105l8.661 8.372 8.472-7.422c14.161-15.411 22.939-33.789 23.066-48.111 0-2.278-.078-3.883-.399-5.217a22.773 22.773 0 0 0-.211-1.1c-.478-2.161-1.778-3.733-3.478-5.805-.828-1-1.745-2.117-2.711-3.472-13.911-19.467-16.139-33.928-17.95-45.639l-.192-1.25a43.611 43.611 0 0 1-9.755.386Zm-34.349-21.532c-1.909.69-5.035 1.934-8.393 3.351-13.228 5.545-19.973 11.895-26.717 25.545-3.778 7.433-4.45 10.405-4.856 21.35-.544 11.894 1.212 25.95 3.773 30.139.811 1.35 3.105 1.077 10.661-1.217 17.811-5.411 34.539-17.572 41.822-30.272 4.069-7.264 8.326-22.568 8.801-29.056-10.675-3.189-19.62-10.384-25.091-19.84Zm-3.788-8.585a43.274 43.274 0 0 1-2.005-13.064c0-2.098.149-4.16.437-6.178a8.513 8.513 0 0 0-.437-.011 4.986 4.986 0 0 0-.506-.022c-.472-.133-.983-.272-1.528-.417-1.811-.489-4.005-1.077-6.505-1.883-11.334-3.789-17.406-3.656-28.606.133-9.172 3.106-21.583 9.728-21.583 11.623 0 1.888 12.411 10 20.1 13.244 10.122 4.056 21.855 4.189 31.844 0a199.094 199.094 0 0 1 3.978-1.528l.011-.005c1.9-.715 3.702-1.391 4.8-1.892Zm59.85-13.064c0-10.25-8.311-18.555-18.555-18.555-10.25 0-18.556 8.305-18.556 18.555 0 10.245 8.306 18.556 18.556 18.556 10.244 0 18.555-8.311 18.555-18.556ZM136.133 74.494c-10.25-4.733-19.427-7.161-20.505-5.272-.406.539-1.35 6.894-2.161 13.922-1.617 12.972-.539 26.889 2.566 37.972 1.35 4.867 1.484 5 9.85 5.812.967.116 1.989.238 3.023.372.316.078.639.144.976.205 14.846 2.473 43.301 15.461 49.49 18.556.117.055.223.1.317.133.583.272 1.272.711 1.767 1.028.405.261.683.439.683.383 0-.055-.183-1.094-.489-2.816l-.005-.028c-.473-2.689-1.245-7.039-2.067-11.889-3.506-19.461-8.906-29.867-22.933-43.511-7.828-7.572-13.228-11.489-20.512-14.867Zm-9.305 117.845c-3.106-4.734-3.917-5.139-9.445-5-7.427 0-18.35 2.972-25.638 6.616-2.967 1.489-5.4 2.978-5.4 3.25 0 1.75 10.933 13.106 17.277 18.106 13.489 10.539 26.978 16.083 30.761 12.567.673-.539 4.045-2.162 7.689-3.512l6.339-2.433-.033-.017c.444-.255.483-.805.067-1.633-2.389-4.783-14.6-19.578-21-27.078-.223-.311-.434-.6-.617-.866Zm21.389 77.983c-7.561-3.105-19.667-8.456-24.156-12.578l-.172-.166-.183-.184c-.289-.289-.573-.566-.845-.833-.678-.678-1.211-1.195-1.622-1.545-1.878-1.738-3.183-2.811-3.183-2.811l-6.75 3.784c-7.684 4.461-18.211 13.244-18.211 15.133 0 .811 4.044 3.245 8.905 5.545 15.383 7.161 39.939 6.755 50.322-.812l4.184-3.105-7.284-2.028c-.35-.144-.689-.278-1.005-.4Zm-51.078-45.956c-2.561-3.111-12.006-2.3-23.067 2.028-7.15 2.834-25.5 14.456-25.5 16.084 0 1.888 9.984 10.4 17 14.455 3.506 2.028 9.173 4.461 12.545 5.406l6.205 1.622 6.884-6.622c3.916-3.511 9.85-8.378 13.494-10.673l6.478-4.055-.045-.006c4.484-2.283 5.584-4.572 3.295-6.861-.361-.355-1.567-1.283-2.939-2.028-1.022-.711-2.5-1.6-4.5-2.733-4.45-2.428-8.9-5.4-9.85-6.617Zm257.428-35.138c-4.722-1.078-11.195-1.889-14.567-1.889-5.478 0-6.133.227-12.144 8.233l-.05-.033c-17.306 22.255-18.384 24.95-15.295 26.544 1.184.811 3.261 1.978 5.9 3.228 8.095 3.917 9.045 4.055 14.845 2.567 8.5-2.295 19.294-8.917 29.272-18.245 12.15-11.217 12.55-12.294 5.939-15.678-2.967-1.483-9.306-3.644-13.9-4.727Zm23.889 36.488c-4.861-1.894-9.85-3.377-11.206-3.377-1.294.066-7.161 3.2-12.672 6.477-.633.212-1.311.456-2.022.745-16.095 6.439-15.456 9.278 0 18.555.711.428 1.378.817 2.005 1.167 3.223 2.328 7.117 5.467 9.995 8.056l7.283 6.622 7.961-2.706c8.506-2.833 17.539-8.511 22.939-14.322 3.1-3.244 3.1-3.65 1.078-5.95-4.05-4.455-16.328-11.889-25.361-15.267ZM142.883 298.15c.839-2.778 1.256-5.45 1.139-6.178.067-.283.028-.478-.133-.561-.333-.167-.556-.178-1.028-.194-.228-.012-.511-.023-.894-.056-17.239-1.439-46.295-6.133-49.189-9.028-1.695-1.694-8.095 8.406-11.528 14.061-2.455 3.311-4.661 6.556-5.694 8.578-3.917 7.567-7.962 21.622-8.367 29.056l-.406 6.622 7.423 1.761c4.05 1.083 14.705 1.889 23.611 2.028 16.728.128 26.85-2.028 38.183-8.111l4.45-2.434.406-14.866c.266-8.106 1.083-17.434 2.027-20.678Zm130.239 52.267c.062.216.139.45.228.711 4.989 16.622 10.656 25.944 22.667 37.972 10.928 10.95 21.044 16.895 35.483 20.544 7.961 2.023 10.117 2.162 11.467.812 1.217-1.217 1.75-7.434 1.75-21.623 0-17.572-.4-20.678-3.1-27.433-1.106-2.75-1.883-4.528-2.789-5.789a10.637 10.637 0 0 0-1.739-2.35c-2.383-2.378-6.978-3.056-11.644-3.75-3.628-.539-7.295-1.078-9.995-2.433-4.3-2.156-5.016 3.205-5.472 6.65-.2 1.494-.35 2.627-.728 2.627-1.239 0-24.739-3.094-30.905-6.183-1.873-.939-7.028-3-5.223.245Zm133.934-135.378c-3.506-2.161-10.522-4.86-15.65-6.217l-9.45-2.428-2.967 3.239c-1.616 1.762-2.833 3.378-2.422 3.65.267.139 4.178 1.483 8.633 2.972 9.445 3.111 19.834 9.728 30.895 19.867l7.961 7.161-11.467 10.811c-6.205 5.945-15.116 12.839-19.839 15.406-8.089 4.328-8.361 4.594-6.066 7.028 1.211 1.355 3.1 2.566 4.183 2.566 2.428 0 13.356-5.539 22.394-11.344 7.556-5.006 25.234-22.034 25.234-24.467 0-2.028-12.817-15.544-19.567-20.544-2.967-2.156-8.228-5.673-11.872-7.7Zm-13.761-86.217c-4.856-1.356-27.795-2.433-34.672-1.489l-4.862.539-.944 8.378c-.406 4.6-2.294 14.055-4.178 20.95l-.572 2.266-.489 1.962-.394 1.572c-2.384 7.589-3.312 8.978-3.673 9.516-.227.345-.227.345-.227 1.378 0 2.628 14.155 6 23.466 8.222 1.639.389 3.128.745 4.361 1.05 1.234.489 2.323.989 3.156 1.467l5.267 2.839 3.239-3.922c8.633-10 15.65-31.35 14.972-45.134-.406-8.111-.539-8.516-4.45-9.594ZM166.222 384.639c6.45-6.817 11.356-14.056 14.595-21.4 4.861-8.339 9.8-19.811-1.445-13.067-8.949 5.369-32.179 5.389-32.179 5.389s-2.935-7.343-4.932-8.483c-4.066-1.017-13.339-1.228-18.344 5.872-3.317 1.183-7 8.4-9.778 18.989-2.561 9.728-2.694 19.189-.672 31.083l.116.65c.673 3.85 1.062 6.072 2.373 7.045 1.8 1.327 5.327.305 13.683-2.106l1.1-.317c13.761-4.055 22.394-9.727 35.483-23.655Zm180.656-127.161c-3.367-2.3-6.606-4.056-7.417-4.056-.372 0-1.544.828-3.105 1.933-1.845 1.306-4.239 3-6.478 4.145-.306.155-.617.328-.928.505-.366.128-.75.289-1.133.478-5.367 2.684-11.317 4.789-16.333 6.561-6.545 2.311-11.5 4.061-11.5 5.811 0 3.095 12.372 9.278 27.833 9.278.35 0 .689-.011 1.017-.039 9.133-.072 19.044-1.989 27.222-5.839l8.905-4.188-6.072-5.267c-3.372-2.972-8.772-7.161-12.011-9.322ZM80.817 209.366l-.095-.105c-1.144-1.233-1.9-2.05-2.839-2.478-1.833-.828-4.35-.155-11.789 1.839l-.255.067c-9.439 2.566-18.211 6.622-24.017 11.216-6.205 4.861-22.933 21.217-22.933 22.573 0 .672 4.183 5.805 9.444 11.35 13.489 14.455 39.128 29.189 43.85 25.266 2.967-2.427 2.562-3.239-2.294-5.539-12.55-5.805-19.967-10.811-28.333-19.055-4.995-5-9.179-10-9.179-11.078 0-5.678 30.09-25.272 44.934-29.194l6.472-1.756-2.966-3.106ZM377.1 290.178l-.044-.05c-3.328-3.734-4.972-5.578-6.311-6.273-2.106-1.277-3.756-.627-5.622 1.178a1.343 1.343 0 0 0-.284.278c-3.766 3.472-24.705 6.1-30.839 6.1h-18.55c-.616 0-.883.206-.85.583-.183.567.339 4.2 1.111 8.317.95 4.328 1.756 13.244 1.895 19.872.266 11.078.533 12.295 3.639 14.595 12.95 9.589 47.494 12.833 70.428 6.489 6.072-1.762 6.344-3.928 2.155-19.739-3.233-12.428-7.955-21.35-16.728-31.35Zm-114.666 122.8c2.255-6.983 3.533-13.611 3.533-16.417 0-4.95-9.284-6.183-12.372-6.183-3.089 0-24.739 30.922-24.739 30.922-6.189-10.306-19.795-30.922-24.745-30.922-4.95 0-9.278 3.089-12.372 6.183-1.672 1.678 1.194 10.622 5.156 19.45a65.474 65.474 0 0 0 3.905 7.961c2.3 4.3 4.611 7.906 6.406 9.7.305.306.633.578.977.828 2.256 2.722 4.801 5.494 7.689 8.383 6.478 6.628 12.412 11.895 13.223 11.895 2 0 13.844-12.011 21.95-21.495 2.239-1.689 4.294-4.444 6.111-7.722.444-.65.811-1.233 1.083-1.728 1.521-2.805 3.011-6.805 4.195-10.855Z" style="fill:#EAE6E3" transform="translate(20.941 14.148)"/></svg>