<svg xmlns="http://www.w3.org/2000/svg" width="214" height="39" fill="none"><path fill="#000" d="M48.822 2.82c1.184.066 2.302.11 3.352.11 1.162 0 2.28-.11 3.375-.11 5.006 0 7.398 2.432 7.398 7.32 0 5.218-3.777 7.938-8.158 7.938-.96 0-1.944-.11-2.995-.11-.916 0-1.9.022-2.972.11.09-1.946.179-3.914.179-5.44V8.26c0-1.526-.09-3.494-.18-5.44Zm2.145 1.15c-.111 1.459-.134 3.206-.134 4.267v4.423c0 .973.023 2.698.134 4.379.514.11 1.9.22 2.906.22 4.581 0 6.883-2.365 6.883-7.12 0-4.555-1.855-6.39-6.436-6.39-1.095 0-2.213.066-3.353.22ZM71.47 5.104h.354l2.253 5.307c1.788 4.257 2.999 6.966 3.353 7.648a4.478 4.478 0 0 0-.987-.092c-.354 0-.69.036-.988.092-.428-1.4-1.173-3.17-1.918-4.94-.8-.054-1.62-.036-2.421-.036-.764 0-1.564.037-2.29.037-1.044 2.488-1.51 3.87-1.808 4.939a2.455 2.455 0 0 0-.689-.092c-.223 0-.447.018-.689.092 1.546-3.354 4.19-9.233 5.83-12.955Zm-.26 2.487-2.031 4.681c.447 0 1.155.037 2.049.037.428 0 1.397-.037 2.048-.037l-2.067-4.68Zm9.144-2.248c.354.056.614.092.912.092.298 0 .615-.036.913-.092-.075 1.825-.15 3.115-.15 4.515v.903c1.938.037 3.242.055 3.893.055.652 0 1.956-.018 3.893-.055v-.571c0-1.806-.056-2.414-.149-4.847.354.056.615.092.913.092.298 0 .614-.036.912-.092-.074 1.64-.149 3.28-.149 4.534v3.648c0 1.254.075 2.912.15 4.534a3.936 3.936 0 0 0-.913-.092c-.298 0-.56.018-.913.092.075-1.622.149-3.262.149-4.534v-1.898c.149 0-2.775-.037-3.893-.037-.465 0-1.75.019-3.892.037v1.898c0 1.254.074 2.912.149 4.534a3.936 3.936 0 0 0-.913-.092c-.298 0-.558.018-.912.092.074-1.622.149-3.262.149-4.534V9.878c0-1.272-.075-2.912-.15-4.534Zm15.427 0c.354.056.614.092.912.092.299 0 .615-.036.913-.092-.093 1.954-.149 3.336-.149 5.013 0 1.732.056 5.952.056 6.837h.466c2.384 0 3.445-.093 4.674-.24-.056.221-.093.387-.093.553 0 .184.037.368.093.553-1.434-.056-2.309-.092-3.427-.092-1.136 0-2.253.036-3.445.092.074-1.622.149-3.262.149-4.534V9.878c0-1.272-.075-2.912-.15-4.534Zm10.243 0c.354.056.615.092.913.092.298 0 .615-.036.913-.092-.075 1.64-.149 3.28-.149 4.534v3.648c0 1.254.074 2.912.149 4.534a3.942 3.942 0 0 0-.913-.092c-.298 0-.559.018-.913.092.075-1.622.149-3.262.149-4.534V9.878c0-1.272-.074-2.912-.149-4.534Zm10.585-.24h.354l2.253 5.308c1.788 4.257 2.999 6.966 3.353 7.648a4.486 4.486 0 0 0-.988-.092c-.353 0-.689.036-.987.092-.428-1.4-1.173-3.17-1.918-4.94-.801-.054-1.62-.036-2.421-.036-.764 0-1.565.037-2.291.037-1.043 2.488-1.509 3.87-1.807 4.939a2.45 2.45 0 0 0-.689-.092c-.223 0-.447.018-.689.092 1.546-3.354 4.191-9.233 5.83-12.955Zm-.261 2.488-2.03 4.681c.447 0 1.155.037 2.049.037.428 0 1.396-.037 2.048-.037l-2.067-4.68Zm9.48-4.772c.424.066.737.11 1.095.11a6.13 6.13 0 0 0 1.095-.11c-.089 1.968-.179 3.936-.179 5.44V9.74c0 .133.045.2.134.2.157 0 .47-.332 1.095-.885 1.364-1.172 4.94-5.064 5.945-6.236.336.066.582.11.917.11.335 0 .693-.044 1.073-.11-2.258 1.99-5.409 4.931-7.152 6.9l7.397 8.358a9.4 9.4 0 0 0-1.341-.11 7.71 7.71 0 0 0-1.229.11l-2.503-3.03c-1.408-1.68-3.956-4.754-4.202-4.754-.111 0-.134.11-.134.2 0 1.945 0 3.14.023 3.869l.156 3.715a6.343 6.343 0 0 0-1.095-.11c-.358 0-.671.044-1.095.11.089-1.946.179-3.914.179-5.44V8.26c0-1.526-.09-3.494-.179-5.44Zm14.445 2.524c.354.056.615.092.913.092.298 0 .614-.036.912-.092-.093 1.954-.149 3.336-.149 5.013 0 1.732.056 5.952.056 6.837h.466c2.384 0 3.445-.093 4.674-.24-.055.221-.093.387-.093.553 0 .184.038.368.093.553-1.434-.056-2.309-.092-3.426-.092-1.137 0-2.254.036-3.446.092.075-1.622.149-3.262.149-4.534V9.878c0-1.272-.074-2.912-.149-4.534Zm10.244 0c.353.056.614.092.912.092.298 0 .615-.036.913-.092-.075 1.64-.149 3.28-.149 4.534v3.648c0 1.254.074 2.912.149 4.534a3.942 3.942 0 0 0-.913-.092c-.298 0-.559.018-.912.092.074-1.622.149-3.262.149-4.534V9.878c0-1.272-.075-2.912-.149-4.534Zm6.45-.24h.298c2.886 3.189 6.481 6.966 9.424 9.97v-1.253c0-2.838-.056-6.616-.149-8.477.223.056.428.092.633.092.205 0 .41-.036.596-.092-.093.977-.298 4.368-.298 6.34 0 2.856.037 6.173.037 6.615h-.242c-2.458-2.82-5.587-6.21-9.405-10.19-.056 1.271-.056 1.64-.056 3.888 0 .571 0 1.345.018 2.303l.075 2.543c.019.738.074 1.143.074 1.217a1.92 1.92 0 0 0-.651-.092c-.224 0-.447.018-.69.092.149-.627.392-6.192.392-7.832v-2.12c0-1.234 0-2.119-.056-3.003Zm15.091.24c.354.056.615.092.913.092.298 0 .614-.036.912-.092-.074 1.64-.149 3.28-.149 4.534v3.648c0 1.254.075 2.912.149 4.534a3.928 3.928 0 0 0-.912-.092c-.298 0-.559.018-.913.092.075-1.622.149-3.262.149-4.534V9.878c0-1.272-.074-2.912-.149-4.534Zm6.115 0c.354.056.615.092.913.092.298 0 .614-.036.912-.092-.074 1.64-.149 3.28-.149 4.534v1.234c0 .11.037.166.112.166.13 0 .391-.276.913-.737 1.136-.977 4.116-4.22 4.954-5.197.279.056.484.092.763.092.28 0 .578-.036.894-.092-1.881 1.659-4.507 4.11-5.96 5.75l6.165 6.966a7.828 7.828 0 0 0-1.117-.092 6.42 6.42 0 0 0-1.025.092l-2.086-2.525c-1.173-1.4-3.296-3.962-3.501-3.962-.093 0-.112.092-.112.166 0 1.621 0 2.617.019 3.225l.13 3.096a5.272 5.272 0 0 0-.912-.092c-.298 0-.559.036-.913.092.075-1.622.149-3.262.149-4.534V9.878c0-1.272-.074-2.912-.149-4.534Zm12.317 0c1.21.056 2.216.092 3.334.092a69.61 69.61 0 0 0 3.315-.092c-.056.221-.056.387-.056.553 0 .203.019.387.056.553-1.769-.147-2.328-.24-4.898-.24-.019.977-.075 1.622-.075 2.378l.019 2.395c1.732 0 2.719-.037 4.525-.184a2.722 2.722 0 0 0-.055.571c0 .203.018.387.055.553-.558-.055-2.477-.166-4.525-.166l-.019 2.451c0 .516.037 2.82.037 2.986h.447c2.403 0 3.893-.111 4.582-.24-.037.24-.056.442-.056.571 0 .166 0 .406.056.535a71.107 71.107 0 0 0-3.352-.092c-1.118 0-2.18.036-3.39.092.074-1.622.149-3.28.149-4.552V9.859c0-.884 0-2.009-.149-4.515Zm10.579-.24h.298c2.886 3.189 6.481 6.966 9.424 9.97v-1.253c0-2.838-.056-6.616-.149-8.477.223.056.428.092.633.092.205 0 .41-.036.596-.092-.093.977-.298 4.368-.298 6.34 0 2.856.037 6.173.037 6.615h-.242c-2.458-2.82-5.587-6.21-9.405-10.19-.056 1.271-.056 1.64-.056 3.888 0 .571 0 1.345.018 2.303l.075 2.543c.018.738.074 1.143.074 1.217a1.925 1.925 0 0 0-.652-.092c-.223 0-.446.018-.689.092.149-.627.392-6.192.392-7.832v-2.12c0-1.234 0-2.119-.056-3.003Z"/><path fill="#000" fill-rule="evenodd" d="M213.5 24.477H47.276v-2.423H213.5v2.423Z" clip-rule="evenodd"/><path fill="#000" d="M48.747 27.9c.727.034 1.33.056 2 .056.671 0 1.263-.023 1.99-.056-.034.133-.034.233-.034.332 0 .122.011.232.034.332-1.062-.089-1.397-.144-2.94-.144-.01.586-.044.973-.044 1.426l.011 1.438c1.04 0 1.632-.022 2.716-.11a1.62 1.62 0 0 0-.034.342c0 .122.011.232.034.332-.336-.034-1.487-.1-2.716-.1l-.01 1.47c0 .31.021 1.692.021 1.792h.269c1.441 0 2.335-.066 2.749-.144a2.445 2.445 0 0 0-.034.343c0 .1 0 .243.034.32a42.63 42.63 0 0 0-2.012-.055c-.67 0-1.307.022-2.034.056.045-.974.09-1.969.09-2.732V30.61c0-.53 0-1.205-.09-2.709Zm8.817-.143c.715 0 1.207.165 1.654.52-.145.265-.212.519-.302.928h-.134c-.268-.697-.715-1.04-1.33-1.04-.849 0-1.441.576-1.441 1.372 0 .74.357 1.172 1.72 1.67 1.33.497 1.8 1.028 1.8 1.978 0 1.427-1.095 2.488-2.738 2.488-.715 0-1.274-.177-1.844-.63.1-.254.168-.486.213-.984h.134c.346.719.972 1.15 1.765 1.15.939 0 1.598-.664 1.598-1.603 0-.741-.447-1.161-1.385-1.515-1.319-.509-2.135-.951-2.135-2.245 0-1.271.995-2.09 2.425-2.09Zm3.81.143c1.04.034 1.934.056 2.884.056s1.855-.023 2.883-.056a1.054 1.054 0 0 0-.056.354c0 .122.022.232.056.343-.626-.089-1.598-.122-2.392-.122l-.022 1.017c-.011.41-.011.763-.011 1.073v2.233c0 .708.045 1.626.09 2.732a3.4 3.4 0 0 0-.548-.056c-.179 0-.369.022-.548.056.045-.985.09-1.969.09-2.72v-2.245c0-.32 0-.675-.011-1.084l-.023-1.006c-.894 0-1.844.067-2.391.122.033-.11.056-.232.056-.354 0-.122-.023-.21-.056-.343Zm8.11 0c.726.034 1.33.056 2 .056.67 0 1.263-.023 1.99-.056-.034.133-.034.233-.034.332 0 .122.01.232.033.332-1.061-.089-1.397-.144-2.939-.144-.01.586-.044.973-.044 1.426l.01 1.438c1.04 0 1.632-.022 2.716-.11-.022.099-.033.22-.033.342 0 .122.01.232.033.332-.335-.034-1.486-.1-2.715-.1l-.011 1.47c0 .31.022 1.692.022 1.792h.268c1.442 0 2.336-.066 2.75-.144a2.46 2.46 0 0 0-.034.343c0 .1 0 .243.033.32a42.623 42.623 0 0 0-2.011-.055c-.67 0-1.308.022-2.034.056.045-.974.09-1.969.09-2.732V30.61c0-.53 0-1.205-.09-2.709Zm5.922 0c1.04.034 1.934.056 2.884.056s1.855-.023 2.883-.056a1.054 1.054 0 0 0-.056.354c0 .122.022.232.056.343-.626-.089-1.598-.122-2.392-.122l-.022 1.017c-.011.41-.011.763-.011 1.073v2.233c0 .708.044 1.626.09 2.732a3.4 3.4 0 0 0-.548-.056c-.18 0-.37.022-.548.056.045-.985.09-1.969.09-2.72v-2.245c0-.32 0-.675-.012-1.084l-.022-1.006c-.894 0-1.844.067-2.392.122.034-.11.056-.232.056-.354 0-.122-.022-.21-.056-.343Zm8.11 0a3.4 3.4 0 0 0 .547.056c.179 0 .369-.023.548-.056-.045.984-.09 1.968-.09 2.72v2.19c0 .751.045 1.746.09 2.72a2.357 2.357 0 0 0-.548-.056c-.179 0-.335.011-.547.056.044-.974.089-1.958.089-2.72v-2.19c0-.763-.045-1.747-.09-2.72Zm6.339-.143c.715 0 1.207.165 1.654.52-.145.265-.213.519-.302.928h-.134c-.268-.697-.715-1.04-1.33-1.04-.85 0-1.441.576-1.441 1.372 0 .74.357 1.172 1.72 1.67 1.33.497 1.8 1.028 1.8 1.978 0 1.427-1.095 2.488-2.738 2.488-.715 0-1.274-.177-1.844-.63.1-.254.168-.486.212-.984h.135c.346.719.972 1.15 1.765 1.15.939 0 1.598-.664 1.598-1.603 0-.741-.447-1.161-1.386-1.515-1.318-.509-2.134-.951-2.134-2.245 0-1.271.995-2.09 2.425-2.09Zm4.593.143a3.4 3.4 0 0 0 .547.056c.18 0 .37-.023.548-.056-.045.984-.09 1.968-.09 2.72v.741c0 .066.023.1.067.1.079 0 .235-.166.548-.443.682-.586 2.47-2.532 2.973-3.118.167.034.29.056.458.056.167 0 .346-.023.536-.056-1.129.995-2.704 2.466-3.576 3.45l3.699 4.18a4.694 4.694 0 0 0-.67-.056c-.213 0-.403.022-.615.056l-1.252-1.515c-.704-.84-1.978-2.378-2.1-2.378-.056 0-.067.056-.067.1 0 .973 0 1.57.01 1.935l.079 1.858a3.17 3.17 0 0 0-.548-.056 3.4 3.4 0 0 0-.547.056c.045-.974.09-1.958.09-2.72v-2.19c0-.763-.045-1.747-.09-2.72Zm7.166 0c1.04.034 1.934.056 2.884.056.949 0 1.855-.023 2.883-.056a1.047 1.047 0 0 0-.056.354c0 .122.022.232.056.343-.626-.089-1.598-.122-2.392-.122l-.022 1.017c-.011.41-.011.763-.011 1.073v2.233c0 .708.044 1.626.089 2.732a3.4 3.4 0 0 0-.547-.056c-.179 0-.369.022-.548.056a65.78 65.78 0 0 0 .089-2.72v-2.245c0-.32 0-.675-.011-1.084l-.022-1.006c-.894 0-1.844.067-2.392.122.034-.11.056-.232.056-.354 0-.122-.022-.21-.056-.343Zm12.337 0c.269.034.816.056 1.174.056.402 0 .793-.056 1.195-.056 1.61 0 2.358.531 2.358 1.593 0 .973-.614 1.636-1.877 1.934v.023c1.553.1 2.145.685 2.145 1.924 0 1.326-1.229 2.156-2.827 2.156-.357 0-.726-.056-1.095-.056-.324 0-.682.011-1.073.056.045-.974.09-1.969.09-2.732V30.61c0-.254-.056-1.824-.09-2.709Zm1.073.465c-.011.663-.067 1.448-.067 1.99v.94h.648c1.017 0 2.09-.376 2.09-1.592 0-.896-.514-1.394-1.855-1.394-.268 0-.548.011-.816.056Zm-.067 3.339v1.25c0 .53.034 1.227.067 2.111.302.033.727.056 1.073.056 1.073 0 1.821-.752 1.821-1.858 0-.365-.089-.663-.257-.896-.324-.464-.938-.663-2.391-.663h-.313ZM121.9 27.9c.458.034.872.056 1.263.056.447 0 .861-.056 1.274-.056 1.531 0 2.335.597 2.335 1.747 0 1.073-.86 1.891-2.29 2.112l1.397 1.747a67.881 67.881 0 0 0 1.665 2.024 3.648 3.648 0 0 0-.671-.056c-.212 0-.458.011-.648.056-.872-1.25-2.146-2.897-2.894-3.671h-.425v.95c0 .752.045 1.748.089 2.72a3.16 3.16 0 0 0-.547-.055 3.41 3.41 0 0 0-.548.056c.045-.974.09-1.958.09-2.72v-2.19c0-.763-.045-1.747-.09-2.72Zm1.073.465c0 .155-.067 1.691-.067 2.255v.774c.224.045.481.056.738.056 1.307 0 2.145-.62 2.145-1.692 0-.929-.626-1.449-1.788-1.449-.346 0-.592.011-1.028.056Zm10.519-.608c2.503 0 4.191 1.481 4.191 3.958 0 2.477-1.688 3.958-4.191 3.958-2.458 0-4.179-1.448-4.179-3.958 0-2.41 1.609-3.958 4.179-3.958Zm-3.084 3.958c0 2.256 1.173 3.55 3.084 3.55 1.922 0 3.096-1.294 3.096-3.55 0-2.267-1.174-3.55-3.107-3.55-1.888 0-3.073 1.272-3.073 3.55Zm1.989-5.75a.57.57 0 0 1 .57.564.57.57 0 0 1-1.14 0 .57.57 0 0 1 .57-.564Zm2.202 0a.57.57 0 0 1 .569.564.57.57 0 0 1-1.139 0 .57.57 0 0 1 .57-.564Zm7.788 1.792c.715 0 1.207.165 1.654.52-.145.265-.212.519-.302.928h-.134c-.268-.697-.715-1.04-1.329-1.04-.85 0-1.442.576-1.442 1.372 0 .74.358 1.172 1.721 1.67 1.33.497 1.799 1.028 1.799 1.978 0 1.427-1.095 2.488-2.738 2.488-.715 0-1.274-.177-1.844-.63.101-.254.168-.486.213-.984h.134c.346.719.972 1.15 1.765 1.15.939 0 1.598-.664 1.598-1.603 0-.741-.447-1.161-1.385-1.515-1.319-.509-2.135-.951-2.135-2.245 0-1.271.995-2.09 2.425-2.09Zm3.811.143c1.039.034 1.933.056 2.883.056s1.855-.023 2.883-.056a1.047 1.047 0 0 0-.056.354c0 .122.023.232.056.343-.626-.089-1.598-.122-2.391-.122l-.023 1.017c-.011.41-.011.763-.011 1.073v2.233c0 .708.045 1.626.09 2.732a3.41 3.41 0 0 0-.548-.056c-.179 0-.369.022-.548.056.045-.985.09-1.969.09-2.72v-2.245c0-.32 0-.675-.011-1.084l-.023-1.006c-.894 0-1.844.067-2.391.122.033-.11.056-.232.056-.354 0-.122-.023-.21-.056-.343Zm11.763-.143a5.85 5.85 0 0 1 2.425.508c-.078.11-.179.575-.235.863l-.067.022c-.57-.62-1.318-.984-2.123-.984-1.922 0-3.095 1.293-3.095 3.549 0 2.256 1.173 3.55 3.095 3.55.727 0 1.419-.255 2.269-.919l.044.045-.1.652c-.537.376-1.486.63-2.325.63-2.324 0-4.078-1.46-4.078-3.903 0-2.52 1.642-4.013 4.19-4.013Zm4.917.143c.726.034 1.329.056 2 .056s1.263-.023 1.989-.056c-.033.133-.033.233-.033.332 0 .122.011.232.033.332-1.061-.089-1.396-.144-2.939-.144-.011.586-.045.973-.045 1.426l.011 1.438c1.04 0 1.632-.022 2.716-.11-.022.099-.033.22-.033.342 0 .122.011.232.033.332-.335-.034-1.486-.1-2.716-.1l-.011 1.47c0 .31.023 1.692.023 1.792h.268c1.441 0 2.336-.066 2.749-.144a2.492 2.492 0 0 0-.033.343c0 .1 0 .243.033.32a42.614 42.614 0 0 0-2.011-.055c-.671 0-1.308.022-2.034.056.044-.974.089-1.969.089-2.732V30.61c0-.53 0-1.205-.089-2.709Zm6.906-.143h.178a224.337 224.337 0 0 0 5.655 5.981v-.752c0-1.702-.034-3.969-.09-5.086.134.034.257.056.38.056s.246-.023.358-.056c-.056.586-.179 2.62-.179 3.804 0 1.714.022 3.704.022 3.97h-.145c-1.475-1.692-3.352-3.727-5.643-6.115-.034.763-.034.984-.034 2.333 0 .343 0 .807.012 1.382l.044 1.526c.011.442.045.685.045.73a1.153 1.153 0 0 0-.391-.056 1.38 1.38 0 0 0-.414.056c.09-.376.235-3.716.235-4.7V29.56c0-.741 0-1.272-.033-1.802Zm8.831.143c1.04.034 1.934.056 2.883.056.95 0 1.855-.023 2.883-.056a1.07 1.07 0 0 0-.055.354c0 .122.022.232.055.343-.625-.089-1.598-.122-2.391-.122l-.022 1.017c-.011.41-.011.763-.011 1.073v2.233c0 .708.044 1.626.089 2.732a3.4 3.4 0 0 0-.548-.056c-.178 0-.368.022-.547.056a65.78 65.78 0 0 0 .089-2.72v-2.245c0-.32 0-.675-.011-1.084l-.022-1.006c-.894 0-1.844.067-2.392.122.034-.11.056-.232.056-.354 0-.122-.022-.21-.056-.343Zm8.109 0c.459.034.872.056 1.263.056.447 0 .861-.056 1.274-.056 1.531 0 2.336.597 2.336 1.747 0 1.073-.861 1.891-2.291 2.112l1.397 1.747a67.881 67.881 0 0 0 1.665 2.024 3.648 3.648 0 0 0-.671-.056c-.212 0-.458.011-.648.056-.872-1.25-2.146-2.897-2.894-3.671h-.425v.95c0 .752.045 1.748.09 2.72a3.172 3.172 0 0 0-.548-.055 3.41 3.41 0 0 0-.548.056c.045-.974.09-1.958.09-2.72v-2.19c0-.763-.045-1.747-.09-2.72Zm1.073.465c0 .155-.067 1.691-.067 2.255v.774c.224.045.481.056.738.056 1.307 0 2.145-.62 2.145-1.692 0-.929-.626-1.449-1.788-1.449-.346 0-.592.011-1.028.056Zm6.921-.465c.212.034.402.056.581.056.19 0 .347-.023.481-.056-.034.32-.134 1.88-.134 3.76 0 .807.011 1.559.245 2.178.358.962 1.163 1.316 2.247 1.316.894 0 1.475-.299 1.843-.774.358-.476.604-1.184.604-2.765v-1.68c0-1.073-.023-1.758-.067-2.035.167.034.313.056.447.056s.223-.023.346-.056a80.943 80.943 0 0 0-.201 4.545c-.034 2.111-1.229 3.228-3.196 3.228-2.19 0-3.185-.973-3.185-3.184 0-.542.056-1.26.056-1.78 0-.62-.011-1.05-.067-2.809Zm10.385-.143h.19c.983 2.034 1.777 3.493 3.207 6.092.235-.442.749-1.382 1.285-2.355l2.034-3.737h.145c.324 2.83.649 5.849.917 7.773a2.18 2.18 0 0 0-.526-.056c-.212 0-.446.022-.525.056-.145-1.814-.368-4.246-.547-5.706h-.023c-1.776 3.262-2.246 4.18-2.927 5.65h-.101c-.894-1.868-1.877-3.66-2.872-5.65h-.022c-.391 3.151-.537 4.92-.537 5.706a1.325 1.325 0 0 0-.391-.056 1.33 1.33 0 0 0-.391.056c.458-2.886.861-5.617 1.084-7.773Z"/><path fill="#DEBA63" fill-rule="evenodd" d="M18.819.572c-1.72 1.154-3.223 3.205-3.45 4.729-.044.291-.124.526-.169.526-.045 0-.509-.201-1.04-.448-1.222-.56-2.092-.773-3.653-.863L9.264 4.45l-.204.774c-.306 1.22-.43 2.386-.35 3.328l.078.874-.734-.079c-.871-.09-2.409.101-3.45.415l-.746.235.08 1.054c.124 1.86.52 3.138 1.277 4.259l.464.66-.77.315a9.459 9.459 0 0 0-2.668 1.67C1.801 18.357.5 19.96.5 20.105c0 .023.294.415.644.875 1.29 1.624 2.839 2.801 4.286 3.227l.475.134-.373.807c-.441.953-.633 1.782-.656 2.936l-.023.863 1.018.27c.566.134 1.493.29 2.07.324l.367.03c.39.03.673.051.673.06 0 .006-.025.121-.063.296l-.107.5c-.282 1.356-.215 2.746.226 4.258l.181.616h.588c.792 0 2.76-.29 3.562-.515.35-.1.938-.325 1.29-.505.734-.369.768-.38.768-.179 0 .225.735 1.693 1.12 2.208.836 1.143 2.657 2.69 3.177 2.69.238 0 1.854-1.188 2.33-1.692.746-.818 1.56-2.175 1.9-3.16.056-.18.124-.169.768.156 1.086.55 2.623.886 4.15.92l1.3.022.272-1.009c.237-.897.26-1.177.203-2.522-.033-.829-.09-1.647-.135-1.826l-.068-.303h.792c.848 0 2.035-.19 3.12-.505l.668-.19-.069-1.087c-.056-1.053-.395-2.353-.825-3.171-.09-.18-.158-.348-.136-.37l.014-.007.012-.006.06-.032c.151-.08.483-.255.864-.448 1.188-.605 3.087-2.309 3.857-3.463.225-.325.135-.46-1.21-1.86-1.052-1.088-1.98-1.737-3.19-2.22-.36-.145-.655-.29-.655-.347 0-.045.124-.269.271-.504.634-.953 1.13-3.15 1.063-4.662l-.034-.773-.904-.27c-.713-.224-1.188-.28-2.217-.291l-1.3-.022.045-1.132c.046-1.087-.08-2.073-.441-3.34l-.124-.437-1.256.067c-1.515.079-2.713.37-3.799.908-.44.224-.814.403-.837.403-.034 0-.079-.168-.112-.369-.17-1.054-1.053-2.611-2.048-3.654C21.566 1.3 19.915 0 19.757 0c-.056 0-.475.258-.938.572Zm2.058 1.871c1.097 1.132 1.458 1.692 1.775 2.712.238.796.373 1.457.294 1.457-.023 0-.215-.314-.419-.706-.384-.729-2.126-2.566-2.566-2.712-.272-.079-.566.056-1.244.605-.566.46-1.697 1.793-1.99 2.365-.306.583-.34.213-.057-.706.317-1.009.52-1.424 1.188-2.298.542-.717 1.65-1.703 1.91-1.703.08 0 .577.448 1.109.986Zm-.125 2.903c1.063 1.109 1.561 1.939 1.9 3.171.453 1.704.384 3.127-.192 4.393l-.227.482-.01-.47c-.012-.662-.498-2.107-.928-2.78a7.34 7.34 0 0 0-.343-.497L19.68 8.207 18.634 9.39a6.277 6.277 0 0 0-1.376 3.218l-.09.672-.238-.448c-.294-.55-.486-1.547-.486-2.466 0-1.748.984-3.933 2.352-5.222.44-.426.86-.773.916-.773.045 0 .52.437 1.04.975Zm-8.843.773c.61.28 1.063.605 1.72 1.233 1.175 1.131 1.628 1.994 1.921 3.608l.174.986v.002l.041.234c0 .005-.023-.01-.057-.032a1.412 1.412 0 0 0-.175-.096c-.518-.257-2.903-1.334-4.147-1.539a1.427 1.427 0 0 1-.082-.017l-.254-.03c-.7-.068-.712-.08-.825-.483-.26-.919-.35-2.073-.215-3.149.068-.582.147-1.11.18-1.154.091-.157.86.045 1.72.437Zm17.392-.1c.136.65.102 3.395-.057 3.91l-.135.46-.736.078-.186.02a.991.991 0 0 1-.119.028c-1.22.201-3.538 1.24-4.116 1.523-.101.104-.203.172-.283.178-.078 0 .26-1.793.464-2.41.396-1.244 1.572-2.69 2.827-3.474.532-.336 1.583-.717 2.002-.717.203-.011.271.078.338.403Zm-9.024 4.202c1.233 1.625 1.482 3.642.679 5.536l-.396.919-.072-.058a.484.484 0 0 1-.03.052c-.407.605-1.182.269-1.536.014l.014-.09c-.099.014-.17-.12-.378-.524-.802-1.568-.836-3.149-.09-4.796.226-.516 1.085-1.636 1.255-1.636.057 0 .305.269.554.583Zm-11.658.302c.26.056.509.112.532.146.022.022.101.392.17.818.083.555.33 1.524.527 2.141.042.093.08.205.11.32l.007.016c.001.005.002.008 0 .011.084.315.125.643.125.643s-.335.074-.764.137l.005.005-.656.134c-.35.09-.87.258-1.13.381l-.486.235-.397-.38c-.61-.583-1.277-2.343-1.458-3.834l-.068-.526.43-.112c.882-.224 2.239-.292 3.053-.135Zm24.843.101c.328.09.34.123.373.796.057 1.143-.531 2.913-1.255 3.743l-.271.325-.442-.236a2.146 2.146 0 0 0-.264-.121 44.642 44.642 0 0 0-.366-.087c-.78-.184-1.966-.464-1.966-.682 0-.086 0-.086.019-.114.03-.045.108-.16.308-.79l.033-.13.04-.162.049-.188c.157-.572.316-1.356.35-1.738l.079-.694.407-.045c.577-.079 2.5.01 2.906.123ZM12.43 11.722c1.787.437 3.71 1.748 4.682 3.194.312.46.742 1.482.875 2.021.073.089.12.171.139.246.207.82-.95 1.539-1.555 1.795-.073 0-.21-.105-.394-.288a13.987 13.987 0 0 1-1.575-.67c-1.267-.672-2.917-2.588-3.517-4.09-.249-.628-.52-1.849-.52-2.32 0-.179.068-.19.6-.123.316.045.893.146 1.266.235Zm16.397.292c-.215 1.591-1.199 3.552-2.375 4.74-.769.773-1.82 1.446-2.736 1.748-.43.135-.837.27-.905.303-.102.034-.147-.09-.147-.392 0-.08.002-.147.009-.204h-.4l-.777-.77.222-.18c-.4-.003-.406-.033-.343-.314.147-.594.61-1.625.995-2.208 1.21-1.793 3.856-3.194 6.208-3.295l.328-.011-.079.583ZM11.13 15.892l.052.071c.537.622 1.56 1.85 1.76 2.246.035.069.032.114-.005.135l.002.002-.53.201c-.306.112-.589.247-.645.292-.317.291-1.448-.168-2.578-1.042-.532-.415-1.448-1.357-1.448-1.502 0-.023.204-.146.452-.27.611-.302 1.526-.548 2.149-.548.463-.012.531.022.792.415Zm19.087-.258c.385.09.917.269 1.165.392.554.28.52.37-.497 1.3-.837.773-1.741 1.322-2.454 1.513-.486.123-.565.112-1.244-.213a3.923 3.923 0 0 1-.494-.268c-.26-.132-.169-.355 1.282-2.201l.004.003c.503-.664.558-.683 1.017-.683.283 0 .826.067 1.221.156Zm-22.943 1.67.249.257-.543.146c-1.244.325-3.765 1.95-3.765 2.42 0 .09.35.505.769.92.701.683 1.323 1.098 2.374 1.58.407.19.441.258.193.459-.396.325-2.545-.897-3.675-2.095-.441-.46-.792-.886-.792-.942 0-.112 1.402-1.468 1.922-1.872.487-.38 1.222-.717 2.013-.93l.021-.005c.624-.166.835-.221.988-.153.08.036.142.104.238.206l.008.009Zm27.342.47c.306.168.747.46.995.639.566.414 1.64 1.535 1.64 1.703 0 .202-1.481 1.614-2.114 2.03-.758.48-1.674.94-1.877.94-.091 0-.25-.1-.35-.213-.193-.202-.17-.224.508-.583.395-.213 1.142-.784 1.662-1.277l.961-.897-.667-.594c-.927-.84-1.798-1.39-2.59-1.647a23.524 23.524 0 0 1-.723-.247c-.034-.022.068-.156.203-.302l.249-.269.792.201c.43.113 1.018.337 1.311.516Zm-25.974.773c.08.101.453.348.826.55.167.093.291.167.377.226.115.062.216.139.246.168.192.19.1.38-.276.569h.004l-.543.337c-.305.19-.803.594-1.131.885l-.577.549-.52-.135a5.57 5.57 0 0 1-1.051-.448c-.588-.336-1.425-1.042-1.425-1.199 0-.135 1.538-1.098 2.137-1.333.927-.36 1.719-.427 1.933-.169Zm23.578.112c.757.28 1.786.897 2.125 1.267.17.19.17.224-.09.493-.453.482-1.21.953-1.923 1.188l-.667.224-.61-.55a10.944 10.944 0 0 0-.838-.667 6.102 6.102 0 0 1-.168-.097c-1.295-.77-1.35-1.005 0-1.539.06-.024.116-.044.17-.062.461-.271.953-.531 1.061-.537.114 0 .532.123.94.28Zm-16.338.796a8.4 8.4 0 0 1 .128.034l.043.002c.143 0 .185.035.204.078.088.04.119.083.08.145.437.516.164 1.063-.034 1.279a.083.083 0 0 1 .009.037c0 .031-.236.119-.494.214-.114.043-.23.087-.334.128-.837.347-1.82.336-2.669 0-.644-.27-1.684-.942-1.684-1.099 0-.157 1.04-.706 1.808-.963.94-.315 1.448-.326 2.398-.012.21.067.393.116.545.157Zm10.751-.078c.35.134.86.392 1.12.583l.463.336-.43.347c-1.21.964-2.77 1.244-3.946.717-.218-.1-.468-.171-.668-.228a2.112 2.112 0 0 1-.331-.11l-.05.008s0-.77.26-1.282c.029-.059.089-.1.171-.129a.054.054 0 0 1 .019-.052c.022-.022.35-.146.724-.28.825-.292 1.73-.258 2.668.09Zm-5.656-.83c.622.37.295 2.622-.26 3.06-.678.527-2.86-.47-2.86-1.311 0-.482.65-1.562 1.046-1.831.351-.235 1.656-.153 2.074.082Zm-8.054 3.811c-.634-.257-1.648-.7-2.024-1.043l-.015-.013-.015-.016a7.22 7.22 0 0 0-.474-.43l-.565.314c-.644.37-1.527 1.098-1.527 1.255 0 .067.34.269.747.46 1.289.593 3.347.56 4.217-.068l.35-.257-.61-.168a4.467 4.467 0 0 0-.084-.034Zm16.65-1.065c.271.18.724.527 1.007.773l.508.437-.746.348c-.685.319-1.516.478-2.281.484a1.024 1.024 0 0 1-.085.003c-1.296 0-2.333-.513-2.333-.77 0-.145.415-.29.963-.481.421-.147.92-.322 1.37-.544a.865.865 0 0 1 .094-.04c.027-.015.053-.03.078-.042.188-.095.389-.235.543-.344.13-.091.23-.16.26-.16.068 0 .34.146.622.336Zm-10.928 2.062c0-.224-.065-.207-.26-.04v-.747L16.83 21.8l-.093.117c-.007-.104-.023-.17-.043-.164-.046 0-.43.146-.86.325-1.108.46-1.673.987-2.239 2.119-.316.616-.372.863-.406 1.77-.046.987.101 2.152.316 2.5.068.111.26.089.893-.101 1.493-.45 2.895-1.458 3.505-2.51.362-.64.742-2.03.742-2.5Zm2.332-.274a.49.49 0 0 0-.109.286c-.041.053-.03.204-.006.5l.016.194c.135 1.872 1.945 3.72 4.263 4.36.384.112.712.168.746.134.034-.034.147-.426.238-.886.35-1.613.044-3.149-.86-4.314-.53-.67-.913-.94-1.934-1.34-.183-.172-.362-.332-.528-.473l-1.826 1.54Zm11.129.924c.735.83 1.13 1.57 1.402 2.6.35 1.31.328 1.49-.18 1.637-1.923.526-4.818.257-5.903-.539-.26-.19-.283-.291-.305-1.21-.012-.55-.08-1.289-.16-1.648-.064-.341-.108-.642-.092-.69-.003-.03.02-.048.071-.048h1.555c.514 0 2.269-.218 2.584-.506a.116.116 0 0 1 .024-.023c.157-.15.295-.203.471-.097.113.057.25.21.53.52l.003.004Zm-19.63.661c.07-.23.105-.452.096-.512.005-.024.002-.04-.012-.047a.18.18 0 0 0-.086-.016c-.019 0-.043-.002-.075-.005-1.444-.119-3.88-.508-4.122-.748-.142-.14-.679.697-.966 1.166-.206.274-.391.544-.478.711-.328.628-.667 1.793-.7 2.41l-.035.549.622.146c.34.09 1.233.157 1.98.168 1.401.01 2.25-.168 3.2-.672l.372-.202.034-1.233c.023-.672.091-1.446.17-1.715Zm5.391 2.775-.01.011-.008.008c-.043.023-.2.158-.375.322-.305.28-.35.403-.35.874.01 1.334.678 2.802 1.832 3.99l.726.694.71-.616c1.186-1.278 1.922-2.802 1.933-3.99a1.876 1.876 0 0 0-.052-.523c-.04-.18-.148-.31-.29-.482a4.873 4.873 0 0 1-.228-.288c-1.166-1.614-1.353-2.813-1.505-3.784-.016-.11-.033-.215-.05-.32-.26-.34-.778-.82-.778 0 0 .821-.173 1.369-.26 1.54 0 0-.777 2.051-1.295 2.564Zm-3.435 4.397c.54-.565.952-1.165 1.223-1.774.408-.692.822-1.643-.12-1.084-1.038.616-2.506.085-3.111-.256-.34-.085-1.118-.102-1.537.486-.278.099-.587.697-.82 1.575-.215.807-.226 1.591-.056 2.578l.01.054c.056.319.088.503.198.584.151.11.447.025 1.147-.175l.092-.026c1.154-.336 1.877-.807 2.974-1.962ZM23.391 29l.019.06c.418 1.378.893 2.15 1.9 3.148.915.908 1.763 1.401 2.973 1.704.667.168.848.18.961.067.102-.1.147-.616.147-1.793 0-1.457-.034-1.715-.26-2.275-.093-.228-.158-.375-.234-.48a.882.882 0 0 0-.145-.195c-.2-.197-.585-.253-.976-.31-.304-.045-.612-.09-.838-.202-.36-.18-.42.265-.459.551-.016.124-.029.218-.06.218-.105 0-2.074-.257-2.59-.513-.158-.078-.59-.249-.439.02Zm-.896 5.188c.189-.579.296-1.128.296-1.361 0-.41-.778-.513-1.037-.513-.259 0-2.074 2.565-2.074 2.565-.518-.855-1.659-2.565-2.073-2.565-.415 0-.778.256-1.037.513-.14.14.1.88.432 1.613.094.228.202.446.327.66.193.357.387.656.537.804a.684.684 0 0 0 .082.07c.189.225.402.455.644.694.543.55 1.04.987 1.109.987.167 0 1.16-.996 1.84-1.783.187-.14.36-.368.511-.64.038-.054.068-.102.091-.143.128-.233.252-.565.352-.9Z" clip-rule="evenodd"/><path stroke="#DEBA63" stroke-width=".556" d="M19.68 21.517c.845 0 1.53-.678 1.53-1.513 0-.836-.685-1.513-1.53-1.513a1.52 1.52 0 0 0-1.529 1.513c0 .835.685 1.513 1.53 1.513Z"/><path fill="#DEBA63" fill-rule="evenodd" d="M23.309 20.004c0 1.983-1.625 3.59-3.629 3.59s-3.628-1.607-3.628-3.59c0-1.983 1.624-3.59 3.628-3.59 2.005 0 3.629 1.607 3.629 3.59Zm-2.073 0c0 .85-.697 1.54-1.556 1.54-.859 0-1.555-.69-1.555-1.54 0-.85.696-1.538 1.555-1.538.86 0 1.556.688 1.556 1.538Z" clip-rule="evenodd"/></svg>