<svg width="88" height="90" fill="none" xmlns="http://www.w3.org/2000/svg"><path fill-rule="evenodd" clip-rule="evenodd" d="M42.199 1.81c-3.885 2.646-7.284 7.347-7.794 10.84-.102.668-.282 1.207-.383 1.207-.103 0-1.15-.462-2.352-1.027-2.76-1.284-4.728-1.772-8.254-1.978l-2.811-.154-.46 1.773c-.691 2.8-.972 5.471-.793 7.629l.179 2.004-1.66-.18c-1.969-.206-5.444.23-7.796.95l-1.686.54.179 2.414c.28 4.265 1.175 7.193 2.887 9.762l1.047 1.516-1.737.719c-2.095.847-4.42 2.338-6.03 3.828-.997.924-3.936 4.598-3.936 4.931 0 .052.664.95 1.456 2.005 2.914 3.723 6.415 6.422 9.685 7.397l1.074.309-.843 1.85c-.997 2.182-1.431 4.083-1.483 6.73l-.051 1.978 2.3.616c1.279.308 3.374.668 4.677.745l.178.014.02.002.634.05c.88.069 1.52.12 1.52.14 0 .013-.057.278-.142.678l-.242 1.144c-.639 3.11-.486 6.295.512 9.763l.408 1.412h1.329c1.789 0 6.236-.667 8.05-1.181.792-.23 2.12-.745 2.914-1.157 1.66-.847 1.737-.872 1.737-.41 0 .514 1.662 3.88 2.53 5.06 1.89 2.62 6.006 6.166 7.18 6.166.538 0 4.192-2.724 5.265-3.879 1.688-1.875 3.527-4.984 4.294-7.244.128-.41.282-.386 1.738.359 2.453 1.259 5.928 2.03 9.378 2.107l2.94.051.612-2.311c.537-2.056.589-2.698.46-5.78-.076-1.902-.204-3.776-.306-4.188l-.154-.694h1.79c1.916 0 4.6-.436 7.054-1.156l1.508-.436-.155-2.491c-.127-2.416-.893-5.396-1.865-7.27-.204-.412-.358-.797-.307-.849l.03-.016.027-.014.137-.072.08-.044c.37-.198 1.072-.573 1.873-.984 2.683-1.387 6.977-5.292 8.715-7.937.51-.744.306-1.054-2.735-4.264-2.376-2.492-4.472-3.981-7.206-5.086-.818-.335-1.483-.668-1.483-.797 0-.103.28-.617.614-1.155 1.43-2.184 2.555-7.22 2.402-10.687l-.077-1.772-2.044-.617c-1.61-.514-2.684-.642-5.01-.669l-2.938-.05.102-2.595c.103-2.492-.18-4.752-.997-7.655l-.28-1.002-2.838.154c-3.424.18-6.132.848-8.586 2.082-.997.513-1.84.924-1.891.924-.077 0-.18-.386-.255-.847-.384-2.415-2.378-5.986-4.627-8.376C48.41 3.48 44.677.5 44.32.5c-.127 0-1.073.591-2.12 1.31ZM46.85 6.1c2.48 2.595 3.297 3.879 4.012 6.217.537 1.824.843 3.339.664 3.339-.05 0-.485-.72-.946-1.618-.868-1.67-4.804-5.883-5.8-6.217-.613-.18-1.278.128-2.811 1.387-1.278 1.054-3.834 4.11-4.498 5.42-.69 1.336-.767.488-.127-1.617.715-2.313 1.175-3.263 2.683-5.267C41.253 6.1 43.758 3.84 44.345 3.84c.18 0 1.303 1.028 2.505 2.261Zm-.28 6.653c2.401 2.543 3.526 4.445 4.292 7.27 1.023 3.905.869 7.167-.434 10.07l-.511 1.104-.026-1.079c-.026-1.515-1.125-4.83-2.095-6.37-.194-.32-.473-.726-.775-1.14l-2.874-3.296-2.365 2.71c-1.722 2.16-2.748 4.576-3.11 7.377l-.204 1.542-.537-1.028c-.664-1.259-1.099-3.545-1.099-5.652 0-4.007 2.224-9.016 5.316-11.97.996-.976 1.942-1.773 2.07-1.773.101 0 1.175 1.003 2.351 2.235Zm-19.986 1.773c1.38.642 2.402 1.386 3.885 2.826 2.657 2.593 3.68 4.571 4.344 8.27.13.77.253 1.474.343 1.982l.048.279.002.005c.057.327.092.525.092.535 0 .01-.053-.023-.13-.073a3.186 3.186 0 0 0-.334-.195.64.64 0 0 1-.06-.025c-1.172-.589-6.562-3.058-9.374-3.527a2.987 2.987 0 0 1-.185-.04L24.7 24.5l-.057-.007c-1.585-.154-1.61-.18-1.866-1.105-.588-2.107-.792-4.752-.486-7.218.153-1.336.332-2.544.41-2.646.203-.36 1.942.102 3.883 1.002Zm39.304-.231c.307 1.49.23 7.783-.127 8.964l-.306 1.054-1.662.18a84.64 84.64 0 0 1-.42.047 2.238 2.238 0 0 1-.27.063c-2.757.46-7.996 2.843-9.302 3.49-.229.24-.458.396-.64.407-.177 0 .589-4.11 1.049-5.523.894-2.851 3.551-6.165 6.388-7.963 1.202-.771 3.578-1.644 4.524-1.644.46-.026.614.18.766.925Zm-20.393 9.633c2.786 3.724 3.348 8.349 1.534 12.689l-.758 1.785a8.183 8.183 0 0 0-2.124-.28c-.68 0-1.339.084-1.97.24-.135-.18-.302-.505-.566-1.026-1.814-3.596-1.891-7.218-.204-10.994.51-1.182 2.453-3.75 2.836-3.75.129 0 .69.617 1.252 1.336ZM40.26 39.104c-.351-1.278-1.255-3.421-1.92-4.413-2.198-3.314-6.543-6.32-10.58-7.322a36.669 36.669 0 0 0-2.862-.538c-1.201-.154-1.355-.13-1.355.282 0 1.079.614 3.878 1.175 5.318 1.356 3.441 5.086 7.834 7.948 9.375.937.497 2.487 1.153 3.56 1.536.073.073.143.14.21.203a8.25 8.25 0 0 1 3.824-4.441Zm-4.232 6.075a1.652 1.652 0 0 0-.083-.002.938.938 0 0 0-.096-.004c-.089-.026-.186-.052-.289-.08l-.026-.007c-.338-.091-.745-.201-1.206-.35-2.147-.72-3.297-.695-5.418.025-1.738.59-4.088 1.849-4.088 2.209 0 .359 2.35 1.9 3.807 2.517 1.917.771 4.14.797 6.031 0 .234-.093.498-.194.754-.29l.002-.001.018-.007c.353-.133.687-.259.891-.353a8.252 8.252 0 0 1-.297-3.657Zm1.015 5.29c-.362.13-.954.367-1.59.636-2.506 1.054-3.783 2.261-5.06 4.856-.716 1.413-.844 1.978-.92 4.058-.104 2.261.229 4.933.714 5.729.154.257.588.205 2.02-.231 3.373-1.029 6.542-3.34 7.921-5.754.77-1.381 1.577-4.29 1.667-5.523a8.226 8.226 0 0 1-4.752-3.772Zm6.506 4.092c-.068 1.566-.4 2.61-.575 2.96 0 0-1.757 4.703-2.928 5.88a.263.263 0 0 0-.016.015l-.008.009-.016.018c-.099.053-.452.363-.85.738-.688.642-.79.924-.79 2.004.025 3.056 1.534 6.422 4.14 9.144l1.64 1.592 1.605-1.411c2.683-2.93 4.345-6.423 4.37-9.145 0-.433-.015-.738-.076-.992a4.046 4.046 0 0 0-.04-.209c-.09-.407-.333-.705-.651-1.094l-.008-.01a11.19 11.19 0 0 1-.513-.66c-2.633-3.697-3.057-6.444-3.4-8.67v-.005l-.037-.237a8.236 8.236 0 0 1-1.847.073Zm3.242-.415c-.046.167-.02.5.024 1.06l.01.132c.009.099.017.203.025.315.306 4.29 4.395 8.528 9.635 9.993.868.256 1.609.384 1.686.307.077-.077.332-.976.537-2.03.792-3.698.101-7.218-1.942-9.89-1.198-1.535-2.065-2.153-4.372-3.072-.323-.308-.64-.598-.942-.864a8.235 8.235 0 0 1-4.661 4.049Zm5.152-5.234.093.026.01.003c.45.13 1.01.29 1.499.52 2.658 1.208 6.185.565 8.919-1.643l.971-.796-1.047-.771c-.588-.437-1.738-1.029-2.53-1.336-2.12-.796-4.165-.874-6.031-.206a32.22 32.22 0 0 0-1.546.594 8.335 8.335 0 0 1-.338 3.609ZM51.8 43.39c.387-.133.918-.306 1.465-.48 2.07-.693 4.446-2.235 6.184-4.008 2.657-2.722 4.88-7.218 5.367-10.865l.179-1.336-.741.025c-5.316.232-11.296 3.443-14.03 7.553-.821 1.262-1.802 3.44-2.188 4.825a8.251 8.251 0 0 1 3.764 4.286ZM19.148 24.62c.588.128 1.15.257 1.201.334.05.05.23.899.383 1.876.19 1.272.746 3.493 1.194 4.907.095.212.179.469.249.734l.014.036c.004.01.005.019.003.025.187.722.28 1.474.28 1.474s-.756.17-1.726.314l.012.01-1.483.309c-.791.205-1.967.59-2.555.873l-1.099.539-.895-.872c-1.38-1.336-2.888-5.37-3.296-8.787l-.153-1.207.97-.256c1.994-.514 5.061-.669 6.9-.308Zm56.145.232c.741.205.766.282.843 1.823.129 2.62-1.2 6.679-2.835 8.58l-.614.745-.998-.54a4.793 4.793 0 0 0-.597-.278 88.658 88.658 0 0 0-.826-.2l-.013-.003c-1.763-.422-4.432-1.061-4.432-1.56 0-.196 0-.196.043-.262.068-.102.244-.366.695-1.809l.075-.299.093-.372.108-.431c.357-1.31.715-3.108.791-3.982l.18-1.593.92-.102c1.303-.18 5.648.025 6.567.283ZM24.821 36.926l.081.114.036.05c1.213 1.427 3.526 4.239 3.978 5.148.079.157.072.262-.013.31l.007.004-1.201.462c-.69.257-1.329.565-1.456.667-.717.669-3.272-.385-5.827-2.388-1.202-.95-3.272-3.11-3.272-3.442 0-.051.46-.334 1.022-.617 1.38-.693 3.45-1.258 4.857-1.258 1.047-.027 1.2.05 1.788.95Zm43.137-.591c.87.206 2.07.617 2.633.898 1.252.644 1.176.849-1.125 2.98-1.89 1.774-3.935 3.032-5.545 3.468-1.098.284-1.278.257-2.811-.487a8.86 8.86 0 0 1-1.118-.614c-.585-.303-.38-.815 2.897-5.045l.01.006c1.138-1.522 1.262-1.565 2.3-1.565.639 0 1.865.154 2.759.359Zm-51.852 3.828.562.59-1.225.334c-2.812.745-8.511 4.47-8.511 5.55 0 .204.792 1.154 1.738 2.105 1.585 1.567 2.99 2.519 5.367 3.622.92.437.996.592.434 1.053-.894.745-5.75-2.055-8.306-4.803-.996-1.054-1.788-2.03-1.788-2.157 0-.258 3.168-3.367 4.343-4.29 1.1-.874 2.762-1.645 4.55-2.133l.048-.013c1.409-.379 1.886-.507 2.233-.35.177.082.32.236.535.469l.003.003.018.02ZM77.9 41.24c.69.386 1.687 1.054 2.249 1.464 1.278.95 3.706 3.52 3.706 3.905 0 .462-3.349 3.7-4.78 4.65-1.712 1.104-3.782 2.157-4.241 2.157-.206 0-.563-.23-.793-.488-.434-.462-.383-.513 1.15-1.336.894-.488 2.582-1.798 3.757-2.928l2.172-2.055-1.508-1.361c-2.095-1.928-4.063-3.185-5.852-3.777a52.633 52.633 0 0 1-1.635-.565c-.078-.051.153-.359.459-.693l.562-.616 1.79.461c.971.258 2.3.771 2.964 1.182Zm-58.702 1.773c.18.231 1.023.796 1.866 1.258.379.215.659.384.852.52.26.14.488.317.557.385.433.435.225.87-.624 1.304l.008.001-1.227.771c-.69.436-1.814 1.361-2.556 2.029L16.77 50.54l-1.175-.308c-.639-.18-1.712-.642-2.376-1.027-1.33-.771-3.22-2.39-3.22-2.748 0-.31 3.476-2.519 4.83-3.057 2.095-.823 3.884-.977 4.37-.386Zm53.285.257c1.71.642 4.036 2.055 4.803 2.902.383.437.383.514-.204 1.13-1.022 1.105-2.733 2.184-4.344 2.723l-1.508.514-1.38-1.258a24.806 24.806 0 0 0-1.893-1.532c-.119-.066-.245-.14-.38-.221-2.927-1.764-3.048-2.304 0-3.528.135-.054.263-.1.383-.141 1.044-.623 2.155-1.219 2.4-1.231.257 0 1.202.282 2.123.642Zm-43.61 8.478c-1.432-.59-3.725-1.607-4.576-2.39l-.032-.032-.035-.035-.16-.158a5.802 5.802 0 0 0-.307-.294c-.356-.33-.603-.534-.603-.534l-1.279.719c-1.455.848-3.449 2.517-3.449 2.877 0 .154.766.616 1.687 1.053 2.914 1.362 7.565 1.285 9.532-.154l.792-.59-1.38-.386a8.945 8.945 0 0 0-.19-.076Zm37.629-2.441c.613.41 1.636 1.207 2.275 1.772l1.15 1.001-1.687.796c-1.549.732-3.426 1.096-5.156 1.11a2.27 2.27 0 0 1-.193.008c-2.928 0-5.272-1.176-5.272-1.764 0-.333.939-.665 2.178-1.105.95-.336 2.078-.737 3.094-1.247.073-.036.145-.066.215-.09a4.06 4.06 0 0 1 .176-.097c.424-.217.877-.54 1.227-.787.295-.21.517-.368.588-.368.153 0 .767.334 1.405.771Zm5.724 6.216c1.662 1.9 2.556 3.596 3.168 5.959.794 3.005.742 3.417-.408 3.752-4.344 1.206-10.887.59-13.34-1.234-.588-.437-.638-.668-.689-2.774-.026-1.26-.179-2.954-.359-3.777-.146-.783-.245-1.473-.21-1.581-.006-.072.044-.11.16-.11h3.514c1.162 0 5.128-.5 5.842-1.16a.254.254 0 0 1 .053-.053c.354-.343.666-.467 1.065-.224.254.132.565.482 1.196 1.192l.008.01Zm-44.363 1.515c.159-.528.238-1.036.215-1.174.013-.054.006-.091-.025-.107a.4.4 0 0 0-.195-.037c-.043-.002-.096-.004-.169-.01-3.265-.274-8.769-1.166-9.317-1.716-.32-.322-1.533 1.597-2.183 2.672-.466.63-.883 1.246-1.079 1.63-.742 1.44-1.508 4.11-1.585 5.524l-.077 1.259 1.406.334c.767.206 2.786.36 4.473.386 3.168.024 5.085-.386 7.232-1.542l.843-.462.076-2.826c.051-1.541.206-3.314.385-3.93Zm4.42 16.44c1.222-1.296 2.151-2.672 2.765-4.068.92-1.585 1.856-3.765-.274-2.483-2.343 1.41-5.662.195-7.03-.589-.77-.193-2.526-.233-3.474 1.117-.628.224-1.326 1.596-1.852 3.61-.485 1.848-.51 3.647-.127 5.907l.022.124c.127.732.2 1.154.45 1.34.34.25 1.005.058 2.58-.398l.011-.003.208-.06c2.607-.771 4.242-1.85 6.721-4.497Zm20.248-6.505c.012.041.027.086.044.135.944 3.16 2.018 4.932 4.293 7.218 2.07 2.082 3.986 3.211 6.72 3.905 1.509.385 1.917.411 2.173.154.23-.23.331-1.412.331-4.11 0-3.34-.076-3.93-.587-5.214-.21-.523-.357-.86-.528-1.1a2.02 2.02 0 0 0-.33-.447c-.45-.45-1.316-.58-2.197-.712l-.008-.001-.012-.002c-.684-.102-1.373-.204-1.881-.46-.815-.41-.95.609-1.037 1.263v.004c-.038.282-.066.496-.138.496-.234 0-4.685-.588-5.853-1.175-.355-.179-1.332-.57-.99.046Zm-2.024 11.892c.427-1.328.67-2.587.67-3.12 0-.942-1.76-1.176-2.344-1.176-.585 0-4.686 5.878-4.686 5.878-1.172-1.96-3.75-5.878-4.687-5.878-.938 0-1.757.587-2.343 1.175-.317.32.226 2.02.976 3.697.214.523.458 1.024.74 1.514.435.817.873 1.502 1.213 1.843.058.059.12.11.185.158.427.517.91 1.044 1.457 1.593 1.227 1.26 2.35 2.261 2.504 2.261.379 0 2.622-2.283 4.158-4.085.424-.321.813-.845 1.157-1.468a4.13 4.13 0 0 0 .205-.329c.289-.533.57-1.293.795-2.063Zm-6.36-35.704a3.184 3.184 0 0 0-3.178 3.19 3.185 3.185 0 0 0 3.178 3.192 3.185 3.185 0 0 0 3.179-3.192 3.184 3.184 0 0 0-3.18-3.19Z" fill="#fff"/></svg>