<svg xmlns="http://www.w3.org/2000/svg" id="Lager_1" data-name="Lager 1" viewBox="0 0 300 278.597"><defs><style>.cls-1{fill:#000}</style></defs><path class="cls-1" d="M23.613 122.253c2.425.672 3.906-.867 4.516-2.91.399-1.338.6-3.495-1.262-4.012-1.965-.544-3.074 1.967-4.55 4.324-1.484 2.381-3.306 4.694-6.726 3.747-3.726-1.033-4.51-4.886-3.575-8.024 1.082-3.625 3.735-6.5 7.945-5.332l-1.103 3.698c-2.23-.486-3.235.842-3.779 2.667-.363 1.217-.248 2.776 1.283 3.2 1.404.39 1.829-.388 4.302-4.418.71-1.173 2.712-4.833 6.846-3.687 3.343.926 5.096 4.126 3.688 8.846-1.147 3.844-4.211 6.894-8.688 5.6ZM37.66 101.856l-1.865 4.105-19.808-1.944 1.706-3.758 13.884 1.463.02-.047-10.513-8.885 1.706-3.757ZM25.6 84.187l7.468-11.442 2.967 1.798-5.273 8.08 3.438 2.084 4.839-7.415 2.741 1.663-4.838 7.414 3.932 2.385 5.385-8.25 2.966 1.798-7.58 11.614ZM37.418 67.06l2.708-2.964 14.72 2.439.035-.038-9.546-8.101 2.552-2.793 14.23 12.074-2.727 2.983-14.682-2.44-.035.038 9.526 8.084-2.552 2.793ZM63.884 58.041c1.605 1.876 3.73 1.414 5.432.06 1.114-.886 2.546-2.555 1.313-3.996-1.302-1.52-3.69-.053-6.29 1.086-2.622 1.155-5.483 2.07-7.747-.576-2.468-2.883-.855-6.488 1.76-8.566 3.02-2.401 6.894-3.325 9.682-.068l-3.08 2.45c-1.554-1.618-3.162-1.07-4.682.139-1.013.805-1.834 2.154-.82 3.339.93 1.086 1.737.676 6.142-1.3 1.274-.58 5.074-2.507 7.811.692 2.214 2.586 1.783 6.18-2.149 9.305-3.2 2.546-7.519 3.39-10.452-.116ZM70.416 37.697l3.549-2.024 4.004 6.518 2.302-10.115 4.43-2.527-2.492 9.807 12.758 5.568-4.452 2.54-9.2-4.297-.804 3.164 3.11 5.066-3.548 2.024ZM100.185 23.158l12.543-3.923 1.082 3.213-8.62 2.696 1.352 4.016 7.472-2.336 1 2.97-7.472 2.336 2.419 7.18-3.924 1.227ZM127.396 15.935c5.731-.885 9.796 2.765 10.687 8.122.866 5.206-1.812 9.897-7.543 10.781s-9.797-2.764-10.663-7.97c-.891-5.357 1.787-10.048 7.519-10.933Zm-5.166-3.868 3.5-.54.493 2.957-3.501.54Zm7.755 19.436c3.656-.565 4.526-3.81 4.027-6.817-.526-3.159-2.405-5.98-6.062-5.415s-4.527 3.81-4.001 6.969c.5 3.007 2.379 5.827 6.036 5.263Zm-2.413-20.26 3.502-.541.492 2.957-3.502.54ZM143.828 14.56l10.112.09c3.362.03 5.468 2.327 5.441 5.09a4.495 4.495 0 0 1-3.013 4.556v.05c2.018.53 2.577 2.455 2.69 4.3.068 1.151.02 3.3.747 4.331l-4.124-.037c-.488-1.156-.418-2.92-.615-4.382-.27-1.922-1.023-2.773-3.099-2.792l-4.123-.037-.07 7.14-4.123-.036Zm4.044 8.303 4.517.04c1.84.017 2.845-.742 2.863-2.585.017-1.766-.974-2.542-2.813-2.559l-4.518-.04ZM166.99 15.423l13.84 2.196-.568 3.334-9.772-1.55-.66 3.864 8.968 1.422-.526 3.081-8.968-1.423-.755 4.42 9.979 1.583-.57 3.333-14.047-2.229ZM187.848 19.234l3.894 1.228 3.484 13.996.05.015 3.955-11.649 3.669 1.158-5.896 17.364-3.918-1.236-3.467-13.963-.05-.016-3.947 11.625-3.669-1.158ZM209.608 26.89l3.739 1.676-8.002 16.567-3.738-1.676ZM219.978 31.64l3.481 2.085-.067 14.392.045.027 6.714-10.41 3.28 1.964-10.009 15.518-3.502-2.098.074-14.358-.044-.026-6.7 10.388-3.28-1.965ZM238.933 65.12a6.49 6.49 0 0 1-5.58-1.41c-4.348-3.706-4.002-9.05-.378-12.998 3.73-4.063 9.19-5.045 13.538-1.338 2.872 2.449 4.003 6.489 1.487 9.879l-2.95-2.516a3.623 3.623 0 0 0-.859-4.833c-2.774-2.365-5.928-.954-8.127 1.442-2.094 2.28-3.162 5.47-.389 7.835a4.181 4.181 0 0 0 6.054-.1l-3.108-2.65 2.058-2.243 5.901 5.032-6.791 7.398-1.967-1.677ZM264.12 67.894l7.685 10.328-2.848 1.97-5.282-7.098-3.56 2.461 4.577 6.151-2.632 1.82-4.577-6.151-6.365 4.4-2.404-3.23ZM279.516 90.693c2.615 4.995.243 9.834-4.782 12.278-4.883 2.374-10.332 1.338-12.948-3.656s-.243-9.835 4.64-12.209c5.025-2.444 10.474-1.407 13.09 3.587Zm-14.601 7.1c1.669 3.187 5.14 3.001 7.96 1.63 2.963-1.441 5.181-4.022 3.512-7.209s-5.14-3-8.103-1.56c-2.821 1.372-5.037 3.953-3.369 7.14Zm16.855-13.016 1.597 3.05-2.773 1.35-1.598-3.052Zm2.438 4.655 1.597 3.05-2.772 1.35-1.598-3.051ZM285.86 105.365l2.972 9.318a4.96 4.96 0 0 1-3.385 6.54 4.778 4.778 0 0 1-5.415-1.389l-.051.015c.087 2.014-1.647 3.111-3.435 3.773-1.119.411-3.258 1.019-4.057 1.997l-1.212-3.8c.995-.798 2.762-1.269 4.147-1.89 1.818-.83 2.43-1.78 1.821-3.693l-1.211-3.8-7.08 2.098-1.212-3.8Zm-6.985 6.229 1.328 4.163c.54 1.694 1.596 2.388 3.422 1.846 1.751-.518 2.22-1.663 1.679-3.358l-1.328-4.163ZM27.002 157.361l1.605 13.43-3.483.385-1.133-9.48-4.036.446 1.04 8.702-3.218.356-1.04-8.701-4.616.51 1.157 9.684-3.482.385-1.629-13.63ZM17.835 180.175c-2.438.62-2.892 2.674-2.329 4.73.369 1.346 1.343 3.298 3.217 2.82 1.977-.503 1.593-3.207 1.607-5.96.008-2.778.343-5.665 3.783-6.541 3.747-.955 6.47 1.966 7.334 5.124 1 3.647.25 7.426-3.985 8.504l-1.02-3.72c2.174-.685 2.33-2.322 1.827-4.158-.336-1.224-1.264-2.507-2.803-2.114-1.412.36-1.364 1.238-1.345 5.92.016 1.358.242 5.49-3.917 6.55-3.362.855-6.569-1.025-7.87-5.774-1.06-3.868-.05-8 4.481-9.102ZM32.652 196.045l-2.177-4.995 3.23-1.31 5.953 13.656-3.231 1.309-2.177-4.995-14.245 5.769-1.598-3.665ZM41.101 206l7.153 11.63-3.015 1.723-5.05-8.211-3.495 1.996 4.634 7.536-2.787 1.592-4.634-7.536-3.998 2.284 5.157 8.385-3.015 1.723-7.26-11.805ZM50.377 225.943l-3.499-4.242 2.744-2.102 9.563 11.595-2.743 2.101-3.499-4.241-12.096 9.266-2.567-3.112ZM61.6 233.398l2.886 2.837-13.538 12.794-2.888-2.837ZM61.965 250.665c-1.599 1.881-.718 3.801.989 5.149 1.117.883 3.093 1.914 4.321.469 1.296-1.524-.658-3.498-2.32-5.738-1.683-2.255-3.167-4.784-.911-7.437 2.457-2.89 6.439-2.06 9.06.01 3.027 2.391 4.716 5.876 1.939 9.142l-3.088-2.44c1.346-1.782.477-3.196-1.047-4.4-1.016-.802-2.547-1.317-3.558-.13-.925 1.09-.352 1.773 2.51 5.556.838 1.092 3.534 4.313.806 7.52-2.204 2.593-5.946 2.88-9.888-.233-3.21-2.536-4.904-6.455-1.9-9.907ZM81.792 250.218l3.546 2.029-4.013 6.513 10.315-2.908 4.427 2.532-10.125 2.6 1.056 13.46-4.45-2.545-.505-9.841-3.266.84-3.118 5.06-3.546-2.028ZM115.048 265.431l-2.502-.783h-.01l-4.873-1.525-.663-.207-5.845 17.381 3.926 1.228 2.096-6.236 4.122 1.292c4.45 1.39 7.096-.824 8.044-3.65.952-2.82.153-6.11-4.295-7.5Zm.5 6.317c-.748 2.214-2.503 2.097-4.324 1.526l-3.048-.954 1.75-5.206 3.049.95c1.82.57 3.314 1.466 2.572 3.684ZM124.62 268.032l4.062.687-2.67 14.67 9.002 1.521-.605 3.327-13.063-2.207ZM145.98 270.7l4.227.125 6.421 18.473-4.28-.127-1.286-4.11-7.01-.208-1.602 4.024-4.174-.124Zm-.755 11.192 4.857.145-2.147-6.773-.052-.002ZM163.955 282.557c.299 2.414 2.346 3.132 4.537 2.88 1.434-.165 3.575-.824 3.345-2.679-.242-1.957-3.074-1.965-5.901-2.361-2.853-.394-5.773-1.114-6.195-4.519-.46-3.71 2.92-5.904 6.284-6.29 3.886-.448 7.665.792 8.184 4.985l-3.965.456c-.401-2.17-2.061-2.546-4.017-2.32-1.305.15-2.75.857-2.562 2.382.173 1.397 1.082 1.473 5.895 2.104 1.398.174 5.675.533 6.185 4.65.412 3.328-1.966 6.128-7.026 6.71-4.12.475-8.227-1.063-8.729-5.541ZM182.312 270.591 176.884 272l-.91-3.263 14.84-3.846.91 3.262-5.429 1.407 4.011 14.384-3.983 1.033ZM193.832 263.63l3.844-1.439 6.865 17.032-3.844 1.439ZM202.074 260.6l3.64-1.866 3.69 6.687 2.78-10.005 4.544-2.33-2.954 9.688 12.482 6.123-4.568 2.342-8.987-4.696-.953 3.126 2.868 5.196-3.64 1.866ZM219.3 251.39l3.287-2.401 4.748 6.036 1.094-10.303 4.103-2.998-1.318 10.018 13.335 4.13-4.125 3.012-9.65-3.257-.425 3.232 3.689 4.69-3.287 2.401ZM234.86 239.29l2.968-2.759 13.16 13.152-2.968 2.758ZM241.238 233.434l6.392-7.553a5.306 5.306 0 0 1 7.523-.913 4.414 4.414 0 0 1 1.807 5.112l.041.032c1.69-1.187 3.599-.405 5.163.662.975.669 2.687 2.047 3.975 2.145l-2.607 3.08c-1.24-.356-2.627-1.51-3.933-2.276-1.725-.997-2.886-.962-4.198.587l-2.606 3.08 5.74 4.513-2.607 3.08Zm9.252 2.144 2.856-3.373c1.162-1.374 1.176-2.604-.306-3.77-1.42-1.115-2.668-.855-3.83.518l-2.855 3.374ZM271.552 210.878c4.446 2.456 5.123 6.156 2.628 10.352-2.507 4.218-6.113 5.495-10.582 3.026l-10.23-5.648 2.051-3.45 10.23 5.65c1.796.992 3.831 1.532 5.49-1.258 1.463-2.46.804-3.874-1.638-5.223l-10.229-5.65 2.05-3.448ZM263.114 201.492l3.549-9.128a5.23 5.23 0 0 1 6.824-3.187c2.088.753 3.342 2.125 3.41 4.285l.05.018c1.206-1.646 3.274-1.495 5.11-.967 1.147.332 3.226 1.11 4.48.804l-1.448 3.723c-1.294.046-2.991-.62-4.482-.942-1.966-.412-3.054-.02-3.782 1.852l-1.447 3.723 6.937 2.503-1.447 3.722Zm9.479-.824 1.585-4.078c.645-1.66.249-2.83-1.541-3.476-1.716-.619-2.812.013-3.457 1.673l-1.585 4.077ZM288.849 173.964a5.94 5.94 0 0 1 1.548 5.356c-1.132 5.487-6.094 7.892-11.458 6.864-5.52-1.057-9.151-5.108-8.02-10.596a7.5 7.5 0 0 1 8.104-6.217l-.768 3.724a3.814 3.814 0 0 0-3.898 3.151c-.723 3.501 2.13 5.416 5.386 6.04 3.098.594 6.495-.123 7.217-3.625.522-2.532-.607-4.272-3.14-4.99l-.81 3.924-3.046-.584 1.537-7.45 10.05 1.927-.511 2.483ZM273.177 163.688l.318-3.963 18.903 1.404-.318 3.963ZM282.395 151.23a6.827 6.827 0 0 0 .231-2.331c.101.11.2.223.308.328l.498.48a7.588 7.588 0 0 0 7.124 1.84.456.456 0 0 0 .329-.316 6.916 6.916 0 0 0-1.01-5.813 7.59 7.59 0 0 0 2.972.61h.704a7.45 7.45 0 0 0 6.387-3.555.433.433 0 0 0 0-.447 7.45 7.45 0 0 0-6.387-3.555h-.704a7.59 7.59 0 0 0-2.973.61 6.917 6.917 0 0 0 1.011-5.813.456.456 0 0 0-.328-.317 7.589 7.589 0 0 0-7.124 1.84l-.498.48c-.11.105-.207.218-.309.329a6.834 6.834 0 0 0-.23-2.332.456.456 0 0 0-.329-.317 7.588 7.588 0 0 0-7.124 1.84l-.498.48a7 7 0 0 0-2.159 5.036 6.822 6.822 0 0 0 .158 1.44 1.524 1.524 0 0 1-.004 1.028 6.812 6.812 0 0 0-.154 1.416 7.001 7.001 0 0 0 2.159 5.036l.498.48a7.588 7.588 0 0 0 7.125 1.84.456.456 0 0 0 .327-.316Zm7.658-.485a6.63 6.63 0 0 1-5.964-1.67l-.498-.48a6.086 6.086 0 0 1-1.734-5.749 6.63 6.63 0 0 1 5.964 1.67l.498.48a6.085 6.085 0 0 1 1.733 5.749Zm-16.685-9.093a6.084 6.084 0 0 1 1.733-5.748l.498-.48a6.63 6.63 0 0 1 5.964-1.67 6.085 6.085 0 0 1-1.733 5.748l-.498.48a6.63 6.63 0 0 1-5.964 1.67Zm8.49 0a6.084 6.084 0 0 1 1.733-5.748l.498-.48a6.63 6.63 0 0 1 5.964-1.67 6.087 6.087 0 0 1-1.734 5.748l-.498.48a6.63 6.63 0 0 1-5.964 1.67Zm5.545.597a6.528 6.528 0 0 1 5.443-2.883h.705a6.527 6.527 0 0 1 5.442 2.883 6.527 6.527 0 0 1-5.442 2.884h-.705a6.528 6.528 0 0 1-5.443-2.884Zm-11.804 6.825-.498-.48a6.087 6.087 0 0 1-1.733-5.748 6.63 6.63 0 0 1 5.964 1.67l.498.48a6.084 6.084 0 0 1 1.733 5.749 6.63 6.63 0 0 1-5.964-1.67ZM17.933 151.547a7.588 7.588 0 0 0 7.124-1.84l.498-.48a7.001 7.001 0 0 0 2.159-5.036 6.812 6.812 0 0 0-.153-1.416 1.524 1.524 0 0 1-.005-1.027 6.822 6.822 0 0 0 .158-1.441 7 7 0 0 0-2.158-5.036l-.499-.48a7.588 7.588 0 0 0-7.124-1.84.456.456 0 0 0-.328.317 6.834 6.834 0 0 0-.23 2.332c-.102-.11-.2-.224-.31-.329l-.497-.48a7.589 7.589 0 0 0-7.124-1.84.456.456 0 0 0-.329.317 6.917 6.917 0 0 0 1.011 5.813 7.59 7.59 0 0 0-2.972-.61h-.705a7.45 7.45 0 0 0-6.387 3.555.433.433 0 0 0 0 .447 7.45 7.45 0 0 0 6.387 3.554h.705a7.59 7.59 0 0 0 2.972-.609 6.916 6.916 0 0 0-1.01 5.813.456.456 0 0 0 .328.316 7.588 7.588 0 0 0 7.124-1.84l.498-.48c.109-.105.207-.218.308-.328a6.827 6.827 0 0 0 .23 2.332.456.456 0 0 0 .329.316Zm-6.252-6.55.498-.48a6.63 6.63 0 0 1 5.964-1.67 6.086 6.086 0 0 1-1.734 5.747l-.498.48a6.63 6.63 0 0 1-5.963 1.67 6.085 6.085 0 0 1 1.733-5.747Zm8.987-5.015-.498-.48a6.085 6.085 0 0 1-1.733-5.748 6.63 6.63 0 0 1 5.964 1.67l.498.48a6.084 6.084 0 0 1 1.733 5.748 6.63 6.63 0 0 1-5.964-1.67Zm-8.489 0-.498-.48a6.087 6.087 0 0 1-1.734-5.748 6.63 6.63 0 0 1 5.964 1.67l.498.48a6.084 6.084 0 0 1 1.734 5.748 6.63 6.63 0 0 1-5.964-1.67Zm-5.025 5.15h-.705a6.527 6.527 0 0 1-5.442-2.883 6.527 6.527 0 0 1 5.442-2.883h.705a6.528 6.528 0 0 1 5.443 2.883 6.528 6.528 0 0 1-5.443 2.884Zm11.283 5.613a6.084 6.084 0 0 1 1.733-5.748l.498-.48a6.63 6.63 0 0 1 5.964-1.67 6.087 6.087 0 0 1-1.733 5.747l-.498.48a6.63 6.63 0 0 1-5.964 1.67ZM188.68 53.294a21.78 21.78 0 0 0-6.428 1.22c-.005 0-.01.004-.014.004a107.635 107.635 0 0 0-25.218-4.333V77.6a355.315 355.315 0 0 0-9.313 4.864c-.229.121-.453.247-.686.373q-1.037.56-2.124 1.161V50.221a105.324 105.324 0 0 0-67.307 29.26 97.97 97.97 0 0 0 0 142.162 105.012 105.012 0 0 0 59.315 28.49l-6.905 2.07a108.08 108.08 0 0 1-54.721-28.333 101.04 101.04 0 0 1 0-146.617 108.925 108.925 0 0 1 76.06-30.366 111.11 111.11 0 0 1 37.341 6.407ZM154.807 206.84v.095l-.27.013v-.09c.088-.004.181-.013.27-.018Z" transform="translate(0 -10.702)"/><path class="cls-1" d="M211.442 148.537c0 26.308-18.43 48.58-43.256 55.923.472-.157.93-.328 1.368-.513.145-.063.29-.121.434-.184.131-.059.257-.117.383-.176.13-.054.252-.117.378-.175a.294.294 0 0 1 .056-.023c.126-.058.248-.121.37-.184.242-.13.485-.257.723-.387a.256.256 0 0 1 .06-.032c.453-.247.901-.495 1.34-.742.23-.13.458-.261.682-.392.294-.175.584-.346.868-.517q.427-.263.84-.526a35.674 35.674 0 0 0 1.354-.905c.55-.378 1.078-.77 1.587-1.174.201-.153.392-.31.584-.468a.552.552 0 0 0 .084-.068c.2-.17.397-.337.593-.508.205-.18.401-.36.602-.544.15-.14.294-.28.439-.419.43-.423.85-.864 1.246-1.314l.042-.027c15.737-10.002 26.474-27.153 26.474-46.645 0-29.592-24-53.889-54.222-55.756-.126-.01-.257-.014-.383-.018.037-.023.075-.036.112-.059.257-.121.518-.243.78-.364.551-.261 1.111-.517 1.676-.77.028-.008.051-.022.075-.031.028-.013.051-.022.074-.031.052-.023.103-.045.15-.068.093-.04.187-.081.27-.121.169-.081.327-.149.463-.212.084-.04.163-.076.233-.112.047-.023.089-.04.131-.063.023-.01.042-.023.06-.032.122-.063.243-.126.37-.184.116-.063.233-.122.354-.18a.004.004 0 0 0 .005-.005.004.004 0 0 0 .005.005l.331.04c29.494 3.978 52.266 28.454 52.266 57.961ZM150.76 125.324a5.13 5.13 0 1 0-5.333-5.11 5.227 5.227 0 0 0 5.333 5.11Z" transform="translate(0 -10.702)"/><path class="cls-1" d="M172.747 173.644c-.485-12.657-11.815-15.789-28.966-20.526-3.478-.963-7.073-1.958-10.845-3.11a27.23 27.23 0 0 1-18.243-17.88 37.316 37.316 0 0 1-1.69-16.004 33.85 33.85 0 0 1 .574-3.532c.126-.563.261-1.116.41-1.66a.326.326 0 0 1 .02-.072 22.953 22.953 0 0 1 3.57-7.609 32.546 32.546 0 0 1 5.715-5.507c.121-.1.247-.198.373-.297a84.974 84.974 0 0 1 2.045-1.548l.719-.517c.243-.171.485-.347.733-.522.406-.284.821-.572 1.237-.855-22.623 8.517-38.686 29.75-38.686 54.532 0 22.857 13.664 42.695 33.532 52.328.023-.013.051-.031.08-.045a32.267 32.267 0 0 1 1.587-.882c.046-.022.088-.045.13-.067a33.129 33.129 0 0 1 1.05-.513c.07-.032.14-.068.215-.1l.08.037c8.566-3.924 19.727-5.098 26.08-5.764.837-.09 1.579-.166 2.204-.243 7.376-.864 15.046-4.819 17.376-13.192q.112-.405.21-.823c.107-.46.2-.936.27-1.422.042-.257.075-.513.103-.779a22.807 22.807 0 0 0 .117-3.428Zm-22.328-1.706a5.148 5.148 0 1 1-5.322 5.143 5.237 5.237 0 0 1 5.322-5.142Zm-20.722 28.779c-.238.09-.477.184-.71.283-.271.113-.537.225-.803.342q-.385.162-.757.337c-.354.167-.704.333-1.045.513a.546.546 0 0 0-.089.045c.023.01.051.023.075.032a28.29 28.29 0 0 1 1.802-.85c.527-.234 1.069-.455 1.62-.666-.033-.014-.06-.023-.093-.036ZM154.536 207.065v17.34a185.62 185.62 0 0 1-5.653-.616c-.047-.004-.098-.009-.145-.018-.583-.076-1.167-.153-1.745-.234v-15.572c.289-.04.583-.076.872-.108 1.14-.144 2.283-.274 3.427-.41 1.078-.125 2.166-.251 3.244-.382Z" transform="translate(0 -10.702)"/><path class="cls-1" d="M154.536 224.406v.004a172.756 172.756 0 0 1-5.653-.62c1.895.238 3.8.44 5.653.616ZM149.798 237.863q-1.225-.013-2.507-.054 1.282.034 2.507.054ZM153.416 237.908c-.322 0-.649-.004-.98-.009-.845-.008-1.727-.018-2.637-.035.91.013 1.792.022 2.637.03ZM154.536 237.922v.004c-.06 0-.116 0-.177-.004Z" transform="translate(0 -10.702)"/><path class="cls-1" d="M154.536 224.406v.004a172.756 172.756 0 0 1-5.653-.62c1.895.238 3.8.44 5.653.616ZM154.536 237.926v18.853c-.154.031-.308.058-.462.085-.182.032-.387.068-.611.104l-.612.085c-.117.018-.243.032-.369.05-.172.023-.35.045-.536.068-.225.027-.463.058-.705.085a117.585 117.585 0 0 1-2.993.324.557.557 0 0 1-.121.014c-.336.036-.682.067-1.032.103a.868.868 0 0 1-.102.01V237.8c.098.004.2.008.298.008q1.282.04 2.507.055c.91.017 1.793.027 2.638.035.331.005.658.01.98.01l.943.013c.061.004.117.004.177.004Z" transform="translate(0 -10.702)"/><path class="cls-1" d="M149.798 237.863q-1.225-.013-2.507-.054 1.282.034 2.507.054ZM153.416 237.908c-.322 0-.649-.004-.98-.009-.845-.008-1.727-.018-2.637-.035.91.013 1.792.022 2.637.03ZM154.536 237.922v.004c-.06 0-.116 0-.177-.004ZM130.052 235.186a27.109 27.109 0 0 1-6.13-.009 49.713 49.713 0 0 1-10.35-2.564 53.282 53.282 0 0 1-9.691-4.594 22.167 22.167 0 0 1 3.039-.261 41.716 41.716 0 0 1 2.507-.01c.929.01 1.937.037 2.997.113 1.06.063 2.18.158 3.342.293a96.732 96.732 0 0 1-6.839-3.366c-.63-.058-1.302-.117-2.007-.202a31.058 31.058 0 0 1-9.37-2.394 50.564 50.564 0 0 1-9-5.58 55.916 55.916 0 0 1-7.693-7.288 39.4 39.4 0 0 1 8.16 2.425c1.004.374 2.03.81 3.086 1.3.117.05.229.099.34.153q-1.694-1.505-3.314-3.11a98.177 98.177 0 0 1-2.147-2.204 93.055 93.055 0 0 1-2.115-.913 29.75 29.75 0 0 1-8.109-5.107 50.55 50.55 0 0 1-11.684-17.255 17.354 17.354 0 0 1 2.6 1.539c.616.405 1.307.877 2.035 1.422.37.27.743.558 1.125.864.397.297.799.612 1.21.945.812.661 1.638 1.39 2.506 2.16.196.175.388.369.58.548q-.512-.884-1.023-1.772a111.604 111.604 0 0 1-2.549-5.04c-.13-.107-.257-.215-.397-.332-.485-.41-.98-.869-1.512-1.35a28.875 28.875 0 0 1-6.055-7.298 46.366 46.366 0 0 1-3.786-9.647 52.262 52.262 0 0 1-1.685-10.272 36.463 36.463 0 0 1 5.056 6.632 55.85 55.85 0 0 1 2.273 3.915 84.144 84.144 0 0 1-1.237-7.708c-.425-.729-.901-1.543-1.42-2.425a41.314 41.314 0 0 1-2.011-4.122 22.403 22.403 0 0 1-1.354-4.625 44.86 44.86 0 0 1-.5-10.29 51.69 51.69 0 0 1 1.695-10.272 35.545 35.545 0 0 1 2.68 7.82c.369 1.485.71 3.1.98 4.815a83.375 83.375 0 0 1 1.284-7.798c-.187-.886-.397-1.908-.63-3.046a39.589 39.589 0 0 1-.588-4.526 22.047 22.047 0 0 1 .21-4.806 49.568 49.568 0 0 1 7.842-19.172 20.003 20.003 0 0 1 .215 2.938c.01.72-.005 1.53-.051 2.412-.019.896-.07 1.867-.173 2.884a53.192 53.192 0 0 1-.724 5.296 84.22 84.22 0 0 1 3.805-7.154c.135-.954.247-2.106.425-3.374.112-.693.238-1.422.383-2.178.074-.374.149-.76.238-1.143.098-.378.2-.76.308-1.143.22-.77.462-1.548.742-2.308.303-.751.64-1.49 1.013-2.2a45.67 45.67 0 0 1 5.961-8.558 52.38 52.38 0 0 1 7.708-7.275 16.202 16.202 0 0 1-.757 2.843c-.219.689-.485 1.467-.812 2.295a40.88 40.88 0 0 1-.523 1.291c-.182.45-.373.918-.583 1.39a56.051 56.051 0 0 1-2.642 5.229c.172-.185.345-.365.508-.536 1.289-1.305 2.288-2.313 3.007-2.956.051-.054.098-.099.15-.144 1.386-1.948 2.987-4.108 4.793-6.2a41.62 41.62 0 0 1 10.103-8.909 18.635 18.635 0 0 1 2.693-1.296c.481-.193.971-.382 1.47-.557.505-.171 1.018-.32 1.537-.468a31.758 31.758 0 0 1 3.09-.743c1.031-.184 2.016-.373 2.969-.477.947-.103 1.834-.184 2.633-.247s1.521-.063 2.11-.077c1.19-.022 1.9-.004 1.9-.004s-.547.459-1.452 1.179c-.448.364-1 .769-1.597 1.26s-1.26 1.021-1.965 1.574a84.962 84.962 0 0 1-9.131 6.727c-2.993 1.705-7.208 3.514-11.307 5.62a86.442 86.442 0 0 0-6.67 3.744c-.085.08-.173.166-.271.256-.77.706-1.83 1.818-3.203 3.235l-.145.153a24.843 24.843 0 0 1 2.278-1.327 21.251 21.251 0 0 1 2.941-1.27c.477-.17.934-.323 1.378-.458.452-.126.896-.23 1.316-.324.84-.184 1.606-.315 2.278-.396a12.668 12.668 0 0 1 2.806-.05c-4.356 3.578-9.551 8.095-13.94 11.838a21.003 21.003 0 0 1-1.755 1.34 38.84 38.84 0 0 1-1.849 1.287c-.317.202-.64.405-.952.607s-.626.405-.929.608c-.625.396-1.237.778-1.82 1.147a72.028 72.028 0 0 0-2.816 1.899 81.63 81.63 0 0 0-3.683 7.073 23.621 23.621 0 0 1 3.814-3.69 28.98 28.98 0 0 1 2.297-1.557c.747-.422 1.438-.769 2.059-1.048a10.744 10.744 0 0 1 2.637-.9c-2.983 4.711-6.442 10.565-9.388 15.442a37.371 37.371 0 0 1-2.581 3.582c-.901 1.17-1.872 2.303-2.731 3.37-.686.872-1.354 1.682-1.886 2.407q-.77 3.725-1.204 7.671a16.08 16.08 0 0 1 .681-1.543 26.013 26.013 0 0 1 1.573-2.713 18.307 18.307 0 0 1 5.49-5.444c-.588 2.695-1.33 5.678-1.965 8.697l-1.91 8.819a37.586 37.586 0 0 1-1.293 4.18c-.485 1.385-1.031 2.753-1.517 4.022-.331.931-.667 1.804-.929 2.592q.441 3.739 1.26 7.505c.028-.428.066-.846.122-1.256a27.503 27.503 0 0 1 .625-3.05 21.129 21.129 0 0 1 1.91-4.59 11.207 11.207 0 0 1 1.564-2.231c.299 2.745.565 5.8.92 8.86.364 3.06.719 6.136 1.018 8.948a69.053 69.053 0 0 1 .004 8.626c-.018.67-.056 1.327-.05 1.926 0 .198.004.377.004.562q1.211 2.538 2.6 5.003c.308.545.62 1.085.943 1.62a20.26 20.26 0 0 1-.187-.86 19.166 19.166 0 0 1-.397-3.086 29.758 29.758 0 0 1-.047-1.404 23.94 23.94 0 0 1 .34-3.518 11.618 11.618 0 0 1 .781-2.596c2.27 5.057 5.205 11.176 7.638 16.315a69.127 69.127 0 0 1 2.8 8.197c.234.756.463 1.472.687 2.124q2.584 2.693 5.392 5.134l-.257-.41a26.52 26.52 0 0 1-1.377-2.816 17.301 17.301 0 0 1-1.424-7.469c1.928 2.043 4.066 4.32 6.209 6.592 2.175 2.258 4.388 4.499 6.344 6.605a70.198 70.198 0 0 1 5.331 6.933c.406.576.808 1.112 1.186 1.611a83.96 83.96 0 0 0 2.086 1.08 91.692 91.692 0 0 0 4.561 2.106 23.383 23.383 0 0 1-2.301-2.317 25.938 25.938 0 0 1-1.662-2.183 22.897 22.897 0 0 1-1.134-1.957 10.425 10.425 0 0 1-.985-2.524c1.213.684 2.502 1.39 3.827 2.11.038.234.075.468.117.697a.283.283 0 0 0 .019.086c.047.238.093.481.15.715q.16.709.363 1.39c.066.225.14.45.215.67a18.751 18.751 0 0 0 2.558 4.963c.276.374.565.743.864 1.098a18.123 18.123 0 0 0 .952 1.039c.168.171.336.333.51.5.317.296.643.589.984.872a21.012 21.012 0 0 0 1.91 1.413c.2.135.41.266.62.396.187.117.378.234.575.342.149.09.303.18.462.261.154.09.312.176.476.261q1.148.607 2.413 1.134a30.654 30.654 0 0 0 1.974.747ZM245.161 156.38a52.235 52.235 0 0 1-1.68 10.272 46.886 46.886 0 0 1-3.786 9.647 28.876 28.876 0 0 1-6.055 7.298c-.537.481-1.032.94-1.517 1.35-.163.14-.313.27-.467.4a86.867 86.867 0 0 1-2.623 5.156c-.313.558-.635 1.111-.957 1.665.219-.207.438-.423.658-.626.873-.769 1.694-1.498 2.511-2.16.406-.333.812-.648 1.21-.945q.574-.458 1.12-.863a38.819 38.819 0 0 1 2.04-1.422 17.15 17.15 0 0 1 2.595-1.539 50.472 50.472 0 0 1-11.68 17.255 29.82 29.82 0 0 1-8.109 5.107c-.784.355-1.526.666-2.203.95a88.035 88.035 0 0 1-5.523 5.34c.164-.072.327-.148.486-.216 1.06-.49 2.086-.927 3.085-1.3a39.41 39.41 0 0 1 8.165-2.425 55.917 55.917 0 0 1-7.693 7.29 50.728 50.728 0 0 1-9 5.578 31.057 31.057 0 0 1-9.37 2.394c-.746.09-1.451.153-2.11.211-.714.387-1.432.77-2.156 1.139q-2.367 1.194-4.762 2.24a63.004 63.004 0 0 1 3.525-.315 47.903 47.903 0 0 1 2.997-.112c.915-.023 1.76-.018 2.502.009a22.26 22.26 0 0 1 3.044.261 53.278 53.278 0 0 1-9.691 4.594 52.229 52.229 0 0 1-6.522 1.885c-.014-.022-.023-.045-.037-.067-.084-.171-.178-.338-.271-.504a15.666 15.666 0 0 0-2.068-2.889c-.103-.117-.21-.23-.318-.342s-.219-.225-.331-.337a13.3 13.3 0 0 0-.752-.689c-.088-.076-.182-.153-.27-.23a14.15 14.15 0 0 0-1.196-.882l-.308-.202c-.042-.027-.084-.054-.13-.086q-.364-.222-.743-.432c-.149-.08-.303-.161-.452-.234a1.798 1.798 0 0 0-.16-.08 16.279 16.279 0 0 0-2.431-.968 52.05 52.05 0 0 1 2.278-1.345c5.149-2.763 11.274-5.93 16.217-8.72a10.152 10.152 0 0 1-.98 2.524 24.254 24.254 0 0 1-1.134 1.957 25.96 25.96 0 0 1-1.662 2.182 22.655 22.655 0 0 1-2.213 2.237 90.856 90.856 0 0 0 6.625-3.195c.36-.472.737-.98 1.12-1.52a68.804 68.804 0 0 1 5.33-6.934c1.957-2.106 4.17-4.347 6.34-6.605 2.143-2.273 4.286-4.55 6.21-6.592a17.227 17.227 0 0 1-1.424 7.469 27.38 27.38 0 0 1-1.373 2.817c-.06.099-.126.198-.191.301q1.66-1.444 3.235-2.983a85.074 85.074 0 0 0 2.124-2.146c.215-.626.43-1.305.649-2.02a70.02 70.02 0 0 1 2.805-8.198c2.433-5.138 5.364-11.258 7.638-16.315a11.875 11.875 0 0 1 .78 2.596c.112.644.21 1.386.27 2.214.033.414.056.85.066 1.305q0 .675-.042 1.404a19.698 19.698 0 0 1-.397 3.086c-.047.234-.098.468-.154.707.331-.558.663-1.116.99-1.679a112.44 112.44 0 0 0 2.516-4.868c.005-.162.01-.315.01-.486 0-.598-.038-1.255-.057-1.926a69.977 69.977 0 0 1 .01-8.625c.294-2.812.653-5.89 1.013-8.95s.62-6.114.92-8.859a10.821 10.821 0 0 1 1.563 2.232 21.105 21.105 0 0 1 1.914 4.59 27.48 27.48 0 0 1 .626 3.05c.047.36.084.729.112 1.102q.798-3.705 1.251-7.401c-.261-.774-.588-1.629-.915-2.542-.48-1.269-1.031-2.637-1.512-4.023a36.599 36.599 0 0 1-1.293-4.18c-.593-2.74-1.252-5.777-1.914-8.818-.63-3.02-1.373-6.003-1.966-8.698a18.3 18.3 0 0 1 5.495 5.445 26.859 26.859 0 0 1 1.573 2.713c.229.454.434.927.63 1.412q-.427-3.894-1.19-7.585c-.523-.716-1.176-1.508-1.849-2.363-.863-1.066-1.834-2.2-2.735-3.37a38.148 38.148 0 0 1-2.577-3.581c-2.95-4.878-6.405-10.731-9.388-15.442a10.873 10.873 0 0 1 2.638.9c.616.279 1.311.625 2.058 1.048.72.441 1.494.959 2.297 1.557a23.26 23.26 0 0 1 3.772 3.645 81.092 81.092 0 0 0-3.665-7.046 79.082 79.082 0 0 0-2.791-1.881c-.584-.37-1.195-.752-1.82-1.148-.309-.202-.617-.405-.93-.607-.317-.202-.635-.405-.957-.607a38.84 38.84 0 0 1-1.848-1.287 22.633 22.633 0 0 1-1.756-1.341c-4.388-3.744-9.579-8.26-13.934-11.838a12.666 12.666 0 0 1 2.805.05c.668.08 1.433.211 2.278.396.416.094.86.198 1.312.323.444.135.906.288 1.377.46a21.063 21.063 0 0 1 2.946 1.268 24.262 24.262 0 0 1 2.25 1.314c-.173-.189-.346-.373-.509-.549-1.256-1.287-2.222-2.29-2.922-2.924a2.678 2.678 0 0 0-.164-.158 86.394 86.394 0 0 0-6.67-3.743c-4.095-2.106-8.315-3.915-11.307-5.62a42.712 42.712 0 0 1-4.08-2.763c.163-.23.331-.464.49-.702a46.865 46.865 0 0 0 2.203-3.581c.075-.135.15-.266.22-.396l.215-.396.21-.396c.117-.216.229-.432.34-.648.169.05.337.103.5.157.495.176.99.365 1.47.558a18.87 18.87 0 0 1 2.694 1.296 41.709 41.709 0 0 1 10.1 8.909c1.803 2.092 3.408 4.256 4.795 6.205.08.076.168.157.261.243.79.71 1.877 1.83 3.292 3.27.032.037.074.077.107.118a59.011 59.011 0 0 1-2.642-5.229c-.206-.472-.402-.94-.58-1.39a56.636 56.636 0 0 1-.527-1.291 35.821 35.821 0 0 1-.807-2.295 16.363 16.363 0 0 1-.761-2.843 52.646 52.646 0 0 1 7.712 7.275 45.886 45.886 0 0 1 5.961 8.558c.373.711.705 1.449 1.008 2.2.285.76.528 1.539.747 2.308.108.383.21.765.304 1.143.088.383.163.77.238 1.143.15.756.27 1.485.383 2.178.182 1.282.298 2.443.43 3.401 1.31 2.2 2.6 4.599 3.808 7.181a55.953 55.953 0 0 1-.732-5.35 41.309 41.309 0 0 1-.173-2.884 36.54 36.54 0 0 1-.047-2.411 20.022 20.022 0 0 1 .215-2.939 49.64 49.64 0 0 1 7.843 19.172 22.35 22.35 0 0 1 .21 4.806 40.667 40.667 0 0 1-.589 4.526c-.238 1.16-.453 2.196-.644 3.096.542 2.515.98 5.115 1.293 7.784.266-1.733.612-3.357.985-4.85a35.287 35.287 0 0 1 2.68-7.82 52.026 52.026 0 0 1 1.695 10.272 44.85 44.85 0 0 1-.5 10.29 22.403 22.403 0 0 1-1.353 4.625 41.353 41.353 0 0 1-2.017 4.121c-.532.914-1.027 1.76-1.466 2.507-.28 2.555-.69 5.129-1.228 7.698a56.884 56.884 0 0 1 2.311-3.986 36.47 36.47 0 0 1 5.055-6.632Z" transform="translate(0 -10.702)"/><path class="cls-1" d="M258.903 150.562a101.151 101.151 0 0 1-31.506 73.309 107.693 107.693 0 0 1-31.412 21.07 28.179 28.179 0 0 0-.276-3.347 104.64 104.64 0 0 0 29.377-19.95 97.97 97.97 0 0 0 0-142.163 104.355 104.355 0 0 0-22.981-16.769 11.736 11.736 0 0 1 3.057-1.957 107.437 107.437 0 0 1 22.235 16.499 101.144 101.144 0 0 1 31.506 73.308ZM122.702 253.846a111.16 111.16 0 0 1-49.768-27.717c-20.942-20.184-32.477-47.023-32.477-75.567 0-28.548 11.535-55.387 32.477-75.571a112.288 112.288 0 0 1 78.403-31.303 114.22 114.22 0 0 1 43.55 8.54 12.813 12.813 0 0 1 .617-1.7 116.144 116.144 0 0 0-44.167-8.64 114.193 114.193 0 0 0-79.724 31.83C50.316 94.242 38.59 121.531 38.59 150.561c0 29.026 11.727 56.314 33.023 76.84a113.07 113.07 0 0 0 46.646 27.1Z" transform="translate(0 -10.702)"/><path class="cls-1" d="M264.085 150.562c0 29.026-11.726 56.314-33.023 76.84a112.908 112.908 0 0 1-35.675 23.258 19.872 19.872 0 0 0 .402-2.128v-.005a110.972 110.972 0 0 0 33.952-22.398c20.946-20.184 32.477-47.023 32.477-75.567 0-28.548-11.53-55.387-32.477-75.572a111.061 111.061 0 0 0-20.83-15.806 1.245 1.245 0 0 0-.103-.063 3.088 3.088 0 0 0 .86-1.601l.111.067a112.792 112.792 0 0 1 21.283 16.13c21.296 20.526 33.023 47.815 33.023 76.845Z" transform="translate(0 -10.702)"/><path class="cls-1" d="M209.78 57.587a6.083 6.083 0 0 1-.869 1.597 1.245 1.245 0 0 0-.103-.063 3.088 3.088 0 0 0 .86-1.601ZM122.702 253.846c-1.475.27-2.969.494-4.444.656ZM133.702 93.717c-.21.13-.415.265-.62.4.28-.176.56-.356.84-.536-.075.041-.145.09-.22.136Zm12.52 111.67c.191.018.388.031.579.04.065-.004.126-.013.191-.022v-.117c-.256.031-.513.067-.77.099Zm-32.645-92.796c.126-.562.261-1.115.41-1.66-.153.545-.288 1.098-.41 1.66Zm32.645 92.796c.191.018.388.031.579.04.065-.004.126-.013.191-.022v-.117c-.256.031-.513.067-.77.099Zm8.463-12.171c-.63.072-1.367.153-2.207.238-6.377.67-17.595 1.85-26.17 5.805l.079.036c8.566-3.924 19.728-5.098 26.081-5.764.836-.09 1.578-.167 2.204-.243 7.376-.864 15.046-4.819 17.375-13.192-2.357 8.324-10.009 12.252-17.361 13.12Zm-8.463 12.17c.191.019.388.032.579.041.065-.004.126-.013.191-.022v-.117c-.256.031-.513.067-.77.099Zm0 0c.191.019.388.032.579.041.065-.004.126-.013.191-.022v-.117c-.256.031-.513.067-.77.099Zm0 0c.191.019.388.032.579.041.065-.004.126-.013.191-.022v-.117c-.256.031-.513.067-.77.099Zm20.639-118.693-.028.014a.069.069 0 0 0 .028-.01c.098-.03.21-.058.34-.094a3.247 3.247 0 0 0-.34.09Zm-7.955 3.807a.439.439 0 0 1-.065.032.004.004 0 0 1-.005.004 8.352 8.352 0 0 0-.355.18l.364-.18a224.297 224.297 0 0 1 3.263-1.602 173.718 173.718 0 0 0-3.202 1.566Zm-.794.4c-.018.009-.037.022-.06.032a.786.786 0 0 0 .06-.028l.37-.188c-.127.058-.248.121-.37.184Zm-.887.418c.168-.076.327-.143.463-.211-.136.063-.295.13-.463.212Zm-.57.252c-.564.252-1.125.509-1.676.77.551-.257 1.107-.513 1.676-.765.028-.014.052-.023.075-.036-.023.009-.046.022-.074.031Zm-10.433 113.817c.192.018.388.031.58.04.064-.004.125-.013.19-.022v-.117c-.256.031-.513.067-.77.099Zm-12.52-111.67c-.21.13-.415.265-.62.4.28-.176.56-.356.84-.536-.075.041-.145.09-.22.136Zm12.52 111.67c.192.018.388.031.58.04.064-.004.125-.013.19-.022v-.117c-.256.031-.513.067-.77.099Zm0 0c.192.018.388.031.58.04.064-.004.125-.013.19-.022v-.117c-.256.031-.513.067-.77.099Zm0 0c.192.018.388.031.58.04.064-.004.125-.013.19-.022v-.117c-.256.031-.513.067-.77.099Zm0 0c.192.018.388.031.58.04.064-.004.125-.013.19-.022v-.117c-.256.031-.513.067-.77.099Zm35.955-10.178c-.397.45-.817.891-1.246 1.314.448-.427.877-.877 1.288-1.34Zm-27.37 11.631c-.088.005-.182.014-.27.018v.207a152.5 152.5 0 0 0 5.064-.688c.44-.068.878-.135 1.308-.207q1.344-.23 2.618-.49c.267-.059.537-.117.799-.176.27-.063.537-.121.798-.184a43.518 43.518 0 0 0 1.592-.418c.257-.073.509-.15.756-.226s.49-.157.733-.238a62.497 62.497 0 0 1-13.398 2.402Zm-7.516 30.97q1.282.04 2.507.053-1.225-.02-2.507-.054Zm5.145.085c-.845-.009-1.728-.018-2.638-.032.91.018 1.793.027 2.638.036.331.005.658.01.98.01Zm1.923.027c.06.004.117.004.177.004v-.004Zm-8.137-32.535c.192.018.388.031.58.04.064-.004.125-.013.19-.022v-.117c-.256.031-.513.067-.77.099Zm-25.586 24.373Zm-1.457-1.53Zm-.868-1.107c.27.378.555.743.863 1.098a21.95 21.95 0 0 1-.863-1.098Zm-2.558-4.963a18.153 18.153 0 0 0 2.558 4.963 18.751 18.751 0 0 1-2.558-4.962Zm-.58-2.06q.155.708.365 1.39-.203-.681-.364-1.39ZM195.104 58.041c-.038-.009-.075-.018-.117-.031l.005-.005a1.078 1.078 0 0 1 .112.036Z" transform="translate(0 -10.702)"/><path class="cls-1" d="m198.829 45.027-.005.004v-.004h.005z"/><path class="cls-1" d="M193.867 59.346v.004l.004-.004Zm-47.645 146.04c.192.019.388.032.58.041.064-.004.125-.013.19-.022v-.117c-.256.031-.513.067-.77.099Z" transform="translate(0 -10.702)"/><path class="cls-1" d="M146.222 205.387c.192.018.388.031.58.04.064-.004.125-.013.19-.022v-.117c-.256.031-.513.067-.77.099Zm-3.24-120.318q.967-.547 1.914-1.066v-.005c-.63.346-1.27.706-1.913 1.07Zm-19.317 12.378a84.974 84.974 0 0 1 2.045-1.548c-.71.513-1.396 1.03-2.045 1.548Zm-.392.306c.005-.005.014-.005.019-.01.121-.098.247-.197.373-.296-.13.099-.261.202-.392.306Zm25.61 126.036c1.895.243 3.8.446 5.653.621v-.004a186.606 186.606 0 0 1-5.653-.617Zm27.258 3.721c.005.005.014.01.019.014.051.022.102.05.159.08-.056-.035-.117-.062-.178-.094Zm-21.334-20.67c-.089.005-.182.014-.27.018v.207a152.5 152.5 0 0 0 5.064-.688c.44-.068.878-.135 1.308-.207q1.344-.23 2.618-.49c.267-.059.537-.117.799-.176.27-.063.537-.121.798-.184a43.518 43.518 0 0 0 1.592-.418c.257-.072.509-.149.756-.225s.49-.158.733-.239a62.497 62.497 0 0 1-13.398 2.402Zm-8.585-1.453c.192.018.388.032.579.04.065-.004.126-.013.192-.022v-.117c-.257.031-.514.067-.77.099Zm39.372-123.823a10.109 10.109 0 0 0 1-.832 11.539 11.539 0 0 1-1 .832Zm-4.215-23.59a73.07 73.07 0 0 0 0 0Zm3.01-.252c-.153.014-.312.023-.47.036.158-.013.317-.022.47-.031.454-.032.893-.054 1.313-.081-.42.022-.86.044-1.312.076Zm2.26-.126c.463-.018.906-.036 1.33-.05-.424.01-.867.027-1.33.05Zm8.343.41-.005.004c.042.014.08.023.117.032a1.078 1.078 0 0 0-.112-.037Zm-1.126 1.34v.005l.005-.005Zm-47.644 146.04c.192.019.388.032.58.041.064-.004.125-.013.19-.022v-.117c-.256.031-.513.067-.77.099Zm0 0c.192.019.388.032.58.041.064-.004.125-.013.19-.022v-.117c-.256.031-.513.067-.77.099Z" transform="translate(0 -10.702)"/><path class="cls-1" d="M204.71 55.099h-2.165l.92-1.818a1.45 1.45 0 0 0-.705-1.971 1.55 1.55 0 0 0-2.04.68l-1.89 3.738-.005.005-3.553 2.106-.28.166a1.078 1.078 0 0 1 .112.036c-.037-.009-.075-.018-.117-.031l.005-.005a2.024 2.024 0 0 0-.177-.045c-.06-.018-.126-.031-.196-.05l-.126-.026c-.07-.014-.14-.027-.215-.045l-.229-.04c-.079-.013-.159-.027-.247-.04a6.037 6.037 0 0 1-.262-.037c-.093-.009-.186-.022-.284-.036-.098-.009-.201-.022-.304-.031-.177-.018-.369-.032-.57-.05l-.378-.027c-1.05-.059-2.367-.077-4.024-.032-.425.014-.868.032-1.33.05-.173.01-.355.018-.537.027-.135.01-.27.014-.41.023-.42.027-.86.05-1.312.08-.154.01-.313.019-.472.032-.163.014-.327.023-.49.036l-.5.04c-.5.04-1.022.09-1.55.14l-.532.054c-.36.036-.719.076-1.083.117-.182.022-.364.04-.546.063-1.093.13-2.194.274-3.263.445a30.6 30.6 0 0 1-.63.103c-.262.045-.514.09-.766.135a31.528 31.528 0 0 0-4.477 1.08c-5.05 1.742-8.16 9.143-10.219 14.039-.476 1.133-.896 2.137-1.227 2.785l-1.111.553a4.13 4.13 0 0 0-.243.122c-.084.04-.173.085-.262.13a355.315 355.315 0 0 0-9.313 4.863c-.229.122-.453.248-.686.374-.69.378-1.4.77-2.124 1.165q-.945.52-1.914 1.067l-.406.23c-.27.153-.542.31-.817.463-.299.171-.598.342-.901.513-.34.198-.686.396-1.032.594-.182.112-.364.216-.55.324-.276.162-.556.324-.836.49q-1.247.735-2.502 1.494a159.473 159.473 0 0 0-7.535 4.828h-.005c-.415.283-.83.57-1.237.854-.247.176-.49.351-.733.522-.242.176-.48.347-.719.518-.71.522-1.395 1.039-2.044 1.547-.126.1-.252.198-.374.297a32.546 32.546 0 0 0-5.714 5.508 22.953 22.953 0 0 0-3.57 7.608.326.326 0 0 0-.02.072 36.12 36.12 0 0 0-.41 1.66 33.85 33.85 0 0 0-.575 3.532 37.403 37.403 0 0 0 1.704 15.928 27.217 27.217 0 0 0 18.244 17.885c3.767 1.152 7.366 2.146 10.844 3.105 17.151 4.742 28.481 7.869 28.967 20.526a21.948 21.948 0 0 1-.13 3.505c-.029.265-.062.522-.104.778-.07.486-.163.963-.27 1.422q-.098.418-.21.823c-2.33 8.374-10 12.329-17.376 13.193-.625.076-1.367.152-2.203.242-6.354.666-17.515 1.84-26.082 5.764l-.079-.036c-.075.032-.145.068-.215.1a31.694 31.694 0 0 0-1.984 1.012c-.265.148-.527.296-.784.45-.028.013-.056.031-.079.045-5.028 3.014-8.576 7.293-8.65 13.448a25.447 25.447 0 0 0 .294 4.288c.038.234.075.468.117.698a.283.283 0 0 0 .019.085c.046.238.093.481.149.715q.161.71.364 1.39c.065.225.14.45.215.67a18.751 18.751 0 0 0 2.558 4.963c.275.374.565.743.864 1.098 0 .005 0 .01.004.01.304.355.617.697.948 1.03.168.17.336.332.509.499.317.297.644.59.985.873.047.04.093.076.145.116a21.012 21.012 0 0 0 1.764 1.296c.2.135.411.266.621.396.187.117.378.234.574.342.15.09.304.18.462.261.154.09.313.176.477.261q1.148.608 2.413 1.134a31.74 31.74 0 0 0 1.975.747h.004a52.147 52.147 0 0 0 13.921 2.488 100.198 100.198 0 0 0 3.315.135q1.281.034 2.506.054c.91.014 1.793.023 2.638.032l.98.013.943.014h.177v.004c9.187.153 13.636.824 13.823 6.547.275 8.477-7.142 11.064-13.823 12.306-.154.031-.308.058-.462.085-.182.032-.387.068-.611.104l-.612.085c-.117.018-.243.032-.369.05-.172.023-.35.045-.537.068a25.05 25.05 0 0 1-.704.085 117.585 117.585 0 0 1-2.993.324.557.557 0 0 1-.121.013c-.336.036-.682.072-1.032.104a.868.868 0 0 1-.103.009c-9.29.909-23.56 1.921-26.366 2.074-.868.05-1.732.095-2.577.14-8.477.436-10.485.607-10.583 2.425a1.387 1.387 0 0 0 .196.778l4.874 1.526h.01c1.577.202 3.72.422 6.656.67 5.752.485 12.32.863 16.194 1.043 2.153.1 5.35.243 9.099.243 11.997 0 29.615-1.502 36.524-10.902a20.864 20.864 0 0 0 3.025-19.262 17.503 17.503 0 0 0-.85-1.943c-.014-.023-.023-.045-.037-.068-.084-.17-.177-.337-.27-.504a15.666 15.666 0 0 0-2.069-2.888c-.103-.117-.21-.23-.317-.342s-.22-.225-.332-.338a13.3 13.3 0 0 0-.751-.688c-.089-.077-.182-.153-.271-.23a14.15 14.15 0 0 0-1.195-.882l-.308-.202c-.042-.027-.084-.054-.13-.086q-.365-.223-.743-.432c-.15-.08-.304-.162-.453-.234a1.798 1.798 0 0 0-.159-.08 16.279 16.279 0 0 0-2.432-.968h-.005a12.193 12.193 0 0 0-.578-.171c-2.307-.626-6.508-.963-11.825-1.39a455.227 455.227 0 0 1-6.783-.585 172.756 172.756 0 0 1-5.653-.62c-.047-.005-.098-.01-.145-.019a73.857 73.857 0 0 1-1.746-.234c-9.122-1.282-17.45-3.518-17.282-7.95.182-4.882 8.305-6.488 17.282-7.622.29-.04.584-.076.873-.108 1.14-.144 2.283-.274 3.426-.41 1.079-.126 2.167-.252 3.245-.382v-.207c.089-.005.182-.014.27-.018a62.497 62.497 0 0 0 13.399-2.403c.462-.153.915-.32 1.349-.49.144-.063.29-.121.434-.184l.383-.176c.13-.054.252-.117.378-.175a.294.294 0 0 1 .056-.023l.425-.22.667-.35a.256.256 0 0 1 .06-.032c.454-.248.902-.495 1.34-.743.23-.13.458-.26.682-.391l.869-.518q.427-.263.84-.526a35.674 35.674 0 0 0 1.353-.904c.551-.378 1.079-.77 1.588-1.175.2-.153.392-.31.583-.468a.552.552 0 0 0 .084-.067c.201-.171.397-.338.593-.509.206-.18.402-.36.602-.544.15-.14.294-.279.44-.418.429-.423.85-.864 1.246-1.314l.042-.027c3.613-4.072 5.928-9.426 7.007-17.557a31.073 31.073 0 0 0-4.52-19.6 30.409 30.409 0 0 0-19.144-13.87c-1.214-.298-2.488-.59-3.804-.896-7.1-1.647-15.149-3.51-21.554-6.943-7.184-3.851-10.755-8.94-10.914-15.554-.252-10.6 8.085-20.018 24.798-28 .037-.023.074-.036.112-.059.256-.121.518-.243.78-.364.55-.26 1.11-.517 1.676-.77.028-.008.051-.022.074-.03.028-.014.052-.023.075-.032.051-.023.103-.045.15-.068.093-.04.186-.08.27-.121.168-.081.327-.149.462-.212.084-.04.164-.076.234-.112.046-.023.088-.04.13-.063.024-.01.042-.023.061-.032.121-.063.243-.126.369-.184.117-.063.233-.122.355-.18a.004.004 0 0 0 .004-.005.439.439 0 0 0 .066-.031c1.097-.55 2.19-1.085 3.202-1.566l.43-.212c.192-.094.383-.184.565-.27l.626-.297c.112-.05.219-.103.322-.153.182-.085.36-.166.527-.247.336-.157.65-.301.924-.432.103-.045.197-.09.285-.13.476-.22.826-.382 1.009-.468a.096.096 0 0 0 .037-.018l.028-.013a3.247 3.247 0 0 1 .34-.09c.043-.01.085-.018.131-.032.122-.031.248-.058.388-.085.756-.162 1.778-.333 2.904-.527.527-.09 1.083-.184 1.652-.288.518-.09 1.05-.189 1.592-.288.107-.018.215-.04.322-.063.551-.103 1.111-.216 1.676-.333a35.688 35.688 0 0 0 8.748-2.803 3.1 3.1 0 0 0 .243-.135c.07-.04.14-.08.215-.126a.476.476 0 0 1 .051-.031c.154-.1.313-.212.472-.329a11.539 11.539 0 0 0 .999-.832c.144-.135.284-.274.434-.423.121-.126.247-.256.373-.391.15-.158.294-.324.444-.495a27.046 27.046 0 0 0 .999-1.22c.205-.265.406-.54.607-.823.163-.23.331-.464.49-.702a46.865 46.865 0 0 0 2.203-3.581c.075-.135.15-.266.22-.396l.215-.396.21-.396c.116-.216.228-.432.34-.648a38.094 38.094 0 0 0 3.68-9.786 5.997 5.997 0 0 0 .083-1.139l.005-.004 3.856-2.286h3.958a1.474 1.474 0 1 0 0-2.947Zm-10.844 4.247h.005l-.004.004Zm-10.56 20.504c-3.57 1.858-9.345 2.848-13.164 3.5a37.988 37.988 0 0 0-4.224.855 1.454 1.454 0 0 0-.15.059c-.046.022-4.64 2.11-8.94 4.292-.252.13-.728.342-1.33.612-.518.23-1.149.513-1.872.85-.542.248-1.13.522-1.765.833-.215.099-.43.207-.649.315-.49.238-.999.499-1.53.774-.183.094-.37.193-.556.292-.243.121-.49.252-.738.391a64.827 64.827 0 0 0-9.822 6.394c-8.17 6.542-12.212 13.88-12.025 21.804.406 17.098 20.152 21.674 34.573 25.017 1.307.301 2.572.594 3.776.886a27.746 27.746 0 0 1 17.45 12.648 28.424 28.424 0 0 1 4.16 17.92c-1.788 13.485-6.989 18.511-16.587 23.55-4.341 2.277-11.768 3.141-18.948 3.974-1.326.153-2.656.31-3.973.472v.117c-.065.01-.126.018-.191.023a12.51 12.51 0 0 1-.579-.04c-9.971 1.286-19.01 3.261-19.261 10.105-.35 9.363 19.578 10.97 34.13 12.144 4.967.396 9.252.742 11.306 1.3a13.125 13.125 0 0 1 9.052 8.39 18.237 18.237 0 0 1-2.67 16.842c-5.438 7.402-19.99 10.614-43.251 9.543-5.817-.265-12.32-.697-17.366-1.147h.037c.845-.045 1.713-.09 2.586-.14 2.783-.153 27.93-1.907 33.794-2.951 4.183-.752 16.918-3.024 16.53-15.082-.294-8.958-8.795-9.044-18.645-9.143-2.656-.027-5.406-.058-8.328-.22-17.936-1.017-26.95-7.978-26.792-20.684.07-5.62 3.791-9.453 8.95-12.108a.546.546 0 0 1 .088-.045c.341-.18.691-.346 1.046-.513q.371-.175.756-.337c.266-.122.532-.234.803-.342.234-.1.472-.194.71-.284l.107-.04c7.792-2.992 17.376-3.995 22.973-4.585.85-.09 1.606-.17 2.24-.243a26.118 26.118 0 0 0 13.828-5.79c4.622-4.018 6.928-9.75 6.666-16.585-.56-14.578-13.976-18.285-30.96-22.978-3.459-.959-7.035-1.944-10.77-3.087a24.613 24.613 0 0 1-16.465-16.189c-2.633-7.662-2.656-19.527 2.493-26.42 1.984-2.659 6.027-5.849 10.821-9.07a124.849 124.849 0 0 1 1.625-1.076c.27-.18.546-.36.826-.535.206-.135.41-.27.62-.4.076-.045.146-.095.22-.135a197.446 197.446 0 0 1 6.036-3.671l.435-.257a283.101 283.101 0 0 1 4.724-2.695c.28-.162.56-.315.835-.468a345.997 345.997 0 0 1 14.313-7.523 1.331 1.331 0 0 0 .574-.527 32.17 32.17 0 0 0 1.574-3.437c1.76-4.185 4.705-11.195 8.594-12.536 5.877-2.024 20.522-2.807 23.154-1.957.127 2.91-6.38 17.016-10.853 19.338Z" transform="translate(0 -10.702)"/><path class="cls-1" d="M195.104 58.041c-.038-.009-.075-.018-.117-.031l.005-.005a1.078 1.078 0 0 1 .112.036Z" transform="translate(0 -10.702)"/><path class="cls-1" d="m198.829 45.027-.005.004-3.552 2.106 3.552-2.11h.005z"/><path class="cls-1" d="m198.829 45.027-.005.004v-.004h.005z"/></svg>